<svg xmlns="http://www.w3.org/2000/svg" viewBox="0 0 300 300">
  <path d="M0.7,299.3 C-0.5,298.1 -0.1,289.2 1.3,288.7 C2.2,288.3 2.2,288.1 1.3,288.1 C0.3,288.0 0.0,278.4 0.0,245.7 L0.0,203.4 L3.5,203.8 C5.4,204.0 7.0,203.8 7.0,203.3 C7.0,201.5 3.3,198.9 1.6,199.6 C0.1,200.2 -0.0,198.2 -0.0,178.6 C-0.0,160.0 0.2,156.9 1.5,156.3 C2.4,156.0 3.7,154.5 4.6,152.9 C6.0,150.0 6.0,149.9 3.0,148.2 L0.0,146.5 L0.0,124.8 C0.0,110.9 0.4,103.0 1.0,103.0 C1.6,103.0 2.0,102.5 2.0,101.9 C2.0,101.4 1.6,101.2 1.0,101.5 C-0.4,102.4 -0.3,21.0 1.2,19.3 C1.9,18.4 1.9,18.0 1.1,18.0 C-0.4,18.0 -0.3,13.3 1.3,12.7 C2.2,12.3 2.2,12.1 1.2,12.1 C0.4,12.0 0.0,10.1 0.0,6.0 L0.0,0.0 L30.9,0.0 C54.7,0.0 61.9,0.3 62.3,1.3 C62.7,2.2 62.9,2.2 62.9,1.2 C63.0,0.3 87.4,0.0 181.6,0.0 L300.1,0.0 L299.9,8.3 C299.8,12.8 299.3,17.3 298.8,18.2 C298.3,19.4 298.3,20.0 299.0,20.0 C299.6,20.0 300.0,26.7 300.0,39.5 C300.0,56.2 299.8,59.0 298.5,59.0 C297.7,59.0 297.0,59.6 297.0,60.4 C297.0,61.2 296.7,62.6 296.3,63.6 C295.8,64.9 296.0,65.2 297.2,64.8 C299.6,63.8 300.0,69.7 300.0,104.9 C300.0,127.6 299.7,136.1 298.9,135.0 C298.0,133.8 297.9,133.9 298.3,135.5 C298.6,136.6 299.1,138.4 299.5,139.5 C300.1,141.4 300.1,141.4 298.3,139.4 C297.3,138.3 295.4,133.5 294.1,128.7 C292.8,123.9 291.5,120.2 291.3,120.4 C290.4,121.3 294.3,137.7 296.1,140.5 C297.1,142.2 298.0,142.9 298.0,142.2 C298.0,141.5 298.4,141.2 299.0,141.5 C299.6,141.8 300.0,142.9 300.0,143.8 C300.0,145.3 299.8,145.3 299.0,144.0 C298.2,142.7 298.0,142.7 298.0,144.2 C298.0,145.1 298.5,146.2 299.0,146.5 C299.6,146.9 300.0,155.8 300.0,169.9 C300.0,191.1 299.9,192.8 298.2,192.6 C297.3,192.6 296.5,193.2 296.5,194.0 C296.5,194.8 297.3,195.4 298.2,195.4 C299.8,195.2 300.0,196.2 300.0,203.5 C300.0,210.1 299.7,211.9 298.4,212.4 C297.6,212.7 297.2,213.4 297.5,214.0 C297.9,214.6 298.6,214.8 299.1,214.5 C299.6,214.1 300.0,227.0 300.0,247.5 C300.0,274.5 299.7,281.5 298.6,283.3 C297.8,284.5 296.9,286.6 296.5,288.0 C295.9,290.0 296.0,290.3 297.1,289.2 C299.4,287.0 299.9,287.9 299.9,294.0 L299.8,300.0 L278.4,299.9 C265.3,299.9 257.2,299.5 257.5,298.9 C257.9,298.4 258.8,298.0 259.6,298.0 C261.5,298.0 261.4,296.4 259.4,295.6 C256.5,294.5 254.3,295.0 250.6,297.5 C248.3,299.1 245.5,300.0 243.2,300.0 C241.2,300.0 239.9,299.6 240.5,299.2 C241.8,298.3 242.4,295.7 241.1,296.4 C240.6,296.8 240.0,296.5 239.8,296.0 C239.6,295.4 238.7,295.6 237.5,296.5 C235.8,297.9 235.8,298.1 237.2,297.6 C238.3,297.3 239.0,297.6 239.0,298.3 C239.0,299.3 236.5,299.7 229.8,299.9 L220.5,300.1 L217.7,295.8 L214.8,291.5 L215.4,295.8 L216.0,300.0 L208.0,300.0 L200.0,300.0 L200.0,289.8 C200.0,258.4 188.8,230.1 171.5,217.2 C168.3,214.9 165.4,213.0 165.0,213.0 C164.6,213.0 164.5,215.2 164.8,217.9 C165.2,222.2 164.9,223.2 162.7,225.4 C161.2,226.8 159.1,228.0 157.9,228.0 C154.0,228.0 149.4,225.0 147.1,221.0 C144.6,216.5 140.6,215.5 139.5,218.9 C137.7,224.5 130.7,228.9 125.5,227.6 C122.0,226.7 119.6,221.6 120.4,216.8 C120.7,214.7 120.8,213.0 120.4,213.0 C118.7,213.0 110.5,219.7 105.7,225.1 C95.5,236.3 88.4,254.7 85.9,276.1 C85.3,281.6 85.0,289.2 85.2,293.0 L85.6,300.0 L77.8,300.0 L70.1,300.0 L69.8,296.2 L69.5,292.5 L67.1,296.3 L64.8,300.1 L50.3,299.9 C38.9,299.8 35.6,299.4 34.7,298.2 C31.7,294.4 27.5,290.9 27.2,291.9 C27.0,292.6 26.4,292.5 25.5,291.6 C24.7,290.8 23.0,290.5 21.4,290.8 C18.7,291.3 18.7,291.3 20.7,292.9 C21.8,293.8 22.5,295.1 22.2,295.8 C22.0,296.4 22.3,297.0 22.9,297.0 C23.5,297.0 24.0,296.6 24.0,296.0 C24.0,295.4 24.8,295.8 25.8,296.8 C26.9,297.7 27.5,298.8 27.3,299.2 C26.6,300.5 19.0,300.1 19.0,298.9 C19.0,298.1 18.5,298.2 17.5,299.0 C16.6,299.7 15.7,300.0 15.3,299.6 C15.0,299.3 15.3,299.0 16.0,299.0 C16.9,299.0 16.7,298.5 15.4,297.5 C14.4,296.7 14.0,296.0 14.6,296.0 C15.1,296.0 16.2,296.6 16.9,297.2 C18.0,298.3 18.2,298.2 17.8,297.0 C17.6,296.2 15.7,294.7 13.7,293.7 C11.7,292.8 10.0,291.5 10.0,290.9 C10.0,290.1 10.5,290.1 11.5,291.0 C13.7,292.8 13.3,290.6 11.1,288.6 C9.9,287.5 8.1,287.0 6.3,287.3 C3.6,287.7 3.6,287.8 5.7,288.5 C7.0,288.9 7.7,289.6 7.4,290.1 C7.1,290.6 7.3,291.0 7.8,291.0 C8.3,291.0 9.3,292.3 10.0,293.9 C10.6,295.5 11.8,297.1 12.6,297.4 C13.4,297.7 14.0,298.4 14.0,299.0 C14.0,300.1 1.8,300.4 0.7,299.3 Z" fill="#6C5CE7" />
  <path d="M294.0,294.1 C293.9,293.1 293.4,293.4 292.5,295.0 C290.6,298.3 290.7,300.0 292.5,297.6 C293.3,296.5 294.0,294.9 294.0,294.1 Z" fill="#6C5CE7" />
  <path d="M49.0,295.6 C49.0,294.0 48.3,292.9 46.9,292.5 C44.0,291.5 43.2,292.8 46.1,293.9 C47.4,294.4 47.9,294.9 47.1,294.9 C46.0,295.0 46.0,295.3 47.0,296.5 C48.7,298.5 49.0,298.4 49.0,295.6 Z" fill="#6C5CE7" />
  <path d="M247.0,292.2 C247.0,290.7 246.8,290.7 246.0,292.0 C244.7,294.0 244.7,295.3 246.0,294.5 C246.6,294.2 247.0,293.1 247.0,292.2 Z" fill="#6C5CE7" />
  <path d="M278.5,294.0 C280.1,293.6 280.8,293.1 280.0,293.0 C275.7,292.3 274.2,292.4 272.5,293.6 C270.7,294.9 270.8,295.0 273.1,294.9 C274.4,294.8 276.9,294.4 278.5,294.0 Z" fill="#6C5CE7" />
  <path d="M42.2,291.2 C40.0,288.2 34.0,284.3 34.0,285.9 C34.0,286.5 34.4,287.0 35.0,287.0 C35.5,287.0 35.7,287.7 35.4,288.5 C34.8,289.9 35.9,290.4 38.7,290.1 C39.4,290.0 40.4,290.9 41.0,292.0 C41.6,293.1 42.5,294.0 43.1,294.0 C43.7,294.0 43.2,292.8 42.2,291.2 Z" fill="#6C5CE7" />
  <path d="M262.8,291.9 C261.4,291.0 262.1,290.8 266.8,290.7 C268.0,290.7 269.0,290.3 269.0,289.9 C269.0,289.4 268.3,289.0 267.5,289.0 C266.7,289.0 266.0,288.3 266.0,287.5 C266.0,286.7 264.9,285.8 263.5,285.4 C262.1,285.1 261.0,284.4 261.0,284.0 C261.0,282.8 263.6,281.0 264.3,281.7 C264.7,282.0 265.0,281.8 265.0,281.2 C265.0,277.8 255.5,281.7 253.9,285.6 C252.7,288.9 253.8,290.7 255.5,288.3 C256.3,287.2 256.5,286.3 255.9,285.9 C255.3,285.6 255.9,284.6 257.2,283.8 L259.6,282.2 L259.4,286.9 C259.2,291.9 260.3,294.2 262.7,293.3 C263.9,292.8 263.9,292.6 262.8,291.9 Z" fill="#6C5CE7" />
  <path d="M282.8,291.7 C282.6,291.5 283.1,290.6 283.9,289.7 C284.6,288.7 284.8,288.0 284.2,288.0 C282.7,288.0 280.8,290.8 281.5,292.0 C281.9,292.6 282.4,292.9 282.7,292.6 C282.9,292.4 283.0,292.0 282.8,291.7 Z" fill="#6C5CE7" />
  <path d="M251.5,289.9 C252.6,288.2 251.7,288.1 249.0,289.5 C246.6,290.9 246.6,290.9 248.7,291.0 C249.9,291.0 251.2,290.5 251.5,289.9 Z" fill="#6C5CE7" />
  <path d="M239.6,286.4 C242.2,285.7 241.9,284.0 239.1,284.0 C236.6,284.0 235.1,285.9 235.8,288.3 C236.3,290.1 236.5,290.2 236.8,288.8 C237.0,287.8 238.2,286.7 239.6,286.4 Z" fill="#6C5CE7" />
  <path d="M46.0,285.5 C45.3,284.6 44.5,284.2 44.2,284.5 C43.9,284.7 44.3,285.6 45.0,286.5 C45.7,287.4 46.5,287.8 46.8,287.5 C47.1,287.3 46.7,286.4 46.0,285.5 Z" fill="#6C5CE7" />
  <path d="M51.7,285.8 C51.4,285.0 51.1,285.3 51.1,286.4 C51.0,287.5 51.3,288.1 51.6,287.7 C51.9,287.4 52.0,286.5 51.7,285.8 Z" fill="#6C5CE7" />
  <path d="M33.0,286.6 C33.0,286.3 32.5,285.8 32.0,285.5 C31.4,285.2 31.0,285.4 31.0,285.9 C31.0,286.5 31.4,287.0 32.0,287.0 C32.5,287.0 33.0,286.8 33.0,286.6 Z" fill="#6C5CE7" />
  <path d="M50.0,285.0 C50.0,283.9 49.6,283.0 49.1,283.0 C48.5,283.0 48.2,283.9 48.3,285.0 C48.4,286.1 48.8,287.0 49.2,287.0 C49.6,287.0 50.0,286.1 50.0,285.0 Z" fill="#6C5CE7" />
  <path d="M30.0,281.5 C27.9,279.0 26.8,279.8 28.7,282.4 C29.7,283.7 30.7,284.4 30.8,283.9 C31.0,283.4 30.6,282.3 30.0,281.5 Z" fill="#6C5CE7" />
  <path d="M42.4,282.6 C40.3,281.1 39.4,281.2 40.5,282.9 C40.8,283.5 41.9,284.0 42.8,284.0 C44.1,284.0 44.1,283.8 42.4,282.6 Z" fill="#6C5CE7" />
  <path d="M239.8,281.1 C240.1,280.2 239.6,280.2 237.6,281.1 C236.2,281.8 235.0,282.7 235.0,283.1 C235.0,284.3 239.3,282.5 239.8,281.1 Z" fill="#6C5CE7" />
  <path d="M52.2,278.7 C51.6,277.9 51.7,276.3 52.6,274.0 C53.7,270.8 53.9,270.7 54.0,273.0 C54.1,274.6 55.1,272.7 57.0,267.5 C62.4,252.0 71.0,233.6 78.2,222.3 C82.3,215.9 85.4,206.8 84.5,203.9 C84.2,203.0 84.8,197.7 85.9,192.1 C87.0,186.5 88.2,179.3 88.6,176.2 L89.2,170.5 L85.4,169.1 C83.2,168.3 80.3,166.9 78.8,165.9 C76.3,164.1 76.1,164.1 75.7,165.7 C75.3,167.2 75.2,167.1 75.1,165.4 C74.9,162.0 72.7,160.7 71.2,163.1 C70.5,164.2 70.2,165.5 70.5,166.0 C70.8,166.6 70.4,168.0 69.6,169.2 C68.7,170.4 68.0,173.4 68.0,175.9 C68.0,178.3 67.7,180.1 67.4,179.7 C66.7,179.0 66.8,156.6 67.6,154.5 C67.9,153.7 67.7,153.0 67.2,153.0 C66.6,153.0 65.8,154.0 65.5,155.2 C65.1,156.5 63.1,160.9 60.9,165.1 C58.8,169.3 56.8,174.6 56.4,176.9 C56.0,179.1 55.4,181.0 55.0,181.0 C54.5,181.0 54.4,180.0 54.6,178.8 C55.0,176.6 55.0,176.6 54.0,178.5 C53.2,180.1 53.1,179.8 53.5,177.0 C53.8,175.1 54.5,170.1 55.0,166.0 C55.6,161.9 56.2,157.3 56.5,155.8 C57.2,151.3 55.5,152.6 53.1,158.2 C51.9,161.1 49.8,165.6 48.5,168.1 C47.2,170.7 45.9,174.4 45.6,176.4 C45.3,178.4 44.8,181.5 44.5,183.4 C44.1,186.0 44.3,186.9 45.7,187.3 C46.7,187.5 48.4,188.1 49.5,188.5 C51.2,189.1 51.2,189.0 50.0,188.0 C48.8,187.1 49.0,186.9 51.2,187.3 C52.8,187.5 54.0,187.3 54.0,186.8 C54.0,186.3 54.4,186.1 54.9,186.5 C55.5,186.8 56.3,186.3 56.8,185.4 C57.5,184.1 58.1,184.0 59.9,184.9 C62.1,186.1 61.9,188.0 59.6,188.0 C58.8,188.0 58.0,189.3 57.7,190.9 C57.3,192.9 56.1,194.1 53.9,195.1 L50.6,196.4 L54.0,197.3 C56.6,197.9 57.0,198.4 55.9,199.1 C55.1,199.6 53.6,200.0 52.5,200.0 C51.0,200.0 50.9,199.7 51.8,199.1 C53.9,197.8 50.8,197.0 47.3,197.9 C44.8,198.6 44.5,199.0 44.8,202.6 C45.8,219.0 45.8,220.4 45.1,217.5 L44.2,214.5 L44.1,218.2 C44.1,220.2 44.4,222.0 44.9,222.2 C45.4,222.3 45.9,224.5 46.0,227.0 C46.3,233.5 46.2,234.0 44.6,234.0 C43.8,234.0 42.9,234.8 42.7,235.8 C42.4,236.7 42.2,236.1 42.1,234.3 C42.0,230.6 41.4,230.1 38.0,231.1 L35.5,231.8 L37.8,232.5 C39.2,233.0 40.0,234.0 40.0,235.6 C40.0,238.9 38.2,239.5 37.8,236.3 C37.6,234.9 36.9,233.4 36.1,233.2 C35.1,232.9 34.8,233.4 35.2,235.4 C35.5,236.8 35.3,238.0 34.9,238.0 C34.4,238.0 34.0,236.9 34.0,235.5 C34.0,234.1 33.5,233.0 33.0,233.0 C32.5,233.0 32.0,233.6 32.0,234.4 C32.0,235.2 31.2,236.0 30.2,236.2 C29.2,236.5 30.9,237.4 34.2,238.5 C37.4,239.5 40.0,240.7 40.0,241.1 C40.0,241.5 39.1,241.6 38.0,241.3 C36.4,240.9 36.0,241.3 35.9,243.6 C35.8,246.0 35.7,246.1 35.3,244.2 C35.1,243.0 34.4,242.2 33.9,242.6 C33.4,242.9 33.2,243.6 33.5,244.1 C33.9,244.6 33.6,245.0 33.1,245.0 C32.5,245.0 32.0,244.3 32.0,243.5 C32.0,242.7 31.6,242.0 31.0,242.0 C30.4,242.0 30.0,241.5 30.0,240.9 C30.0,240.4 30.4,240.2 31.0,240.5 C31.6,240.8 32.0,240.7 32.0,240.2 C32.0,239.6 31.3,239.0 30.5,238.6 C29.4,238.2 29.0,238.8 29.0,241.1 C29.0,242.8 29.4,243.9 30.0,243.5 C30.5,243.2 30.7,243.5 30.4,244.3 C30.1,245.3 31.5,246.0 35.7,246.9 C41.5,248.2 45.7,249.9 43.2,250.0 C42.6,250.0 42.0,250.5 42.0,251.2 C42.0,251.8 41.3,253.2 40.3,254.2 C38.8,255.9 38.8,256.0 40.3,256.0 C41.3,256.0 42.1,256.6 42.2,257.2 C42.6,260.7 42.5,261.6 41.7,262.1 C40.0,263.3 41.9,264.7 46.5,265.9 C51.0,267.0 51.9,269.0 47.9,269.0 C46.6,269.0 45.4,270.1 44.6,272.0 C43.3,275.1 42.0,275.0 42.0,271.8 C42.0,270.8 40.9,269.5 39.6,268.9 C37.7,268.0 36.7,268.2 34.6,269.5 C31.0,271.9 31.4,273.8 35.3,273.1 C37.0,272.8 40.1,275.2 41.0,277.4 C42.1,280.3 49.8,282.9 51.1,280.8 C51.8,279.8 52.0,280.0 52.1,281.5 C52.2,283.3 52.3,283.3 52.7,281.7 C53.0,280.7 52.7,279.4 52.2,278.7 Z" fill="#6C5CE7" />
  <path d="M246.7,281.4 C247.0,281.7 248.1,281.5 249.2,280.9 C250.3,280.3 250.9,279.6 250.6,279.3 C249.6,278.3 252.1,276.1 253.5,276.6 C254.3,276.9 255.7,276.7 256.7,276.2 C258.4,275.2 258.4,275.1 256.7,274.5 C254.0,273.4 250.5,274.7 249.0,277.4 C248.3,278.9 246.7,280.0 245.2,280.2 C243.8,280.4 242.5,281.1 242.2,281.8 C241.9,282.9 242.2,283.0 244.0,282.0 C245.2,281.4 246.4,281.1 246.7,281.4 Z" fill="#6C5CE7" />
  <path d="M276.9,277.4 C277.1,277.2 276.4,277.0 275.2,277.0 C273.2,277.0 269.0,280.5 269.0,282.2 C269.0,282.8 275.3,279.0 276.9,277.4 Z" fill="#6C5CE7" />
  <path d="M39.7,280.4 C39.4,280.1 38.5,280.0 37.8,280.3 C37.0,280.6 37.3,280.9 38.4,280.9 C39.5,281.0 40.1,280.7 39.7,280.4 Z" fill="#6C5CE7" />
  <path d="M233.9,276.8 C234.0,277.5 235.1,276.9 236.4,275.3 C239.0,272.4 238.1,270.8 235.3,273.2 C233.9,274.3 233.7,274.3 234.2,273.0 C234.4,272.2 235.7,271.3 237.1,270.9 C238.4,270.5 238.9,270.2 238.2,270.1 C237.6,270.0 237.0,269.5 237.0,268.9 C237.0,268.1 237.4,268.1 238.4,268.9 C239.5,269.8 240.4,269.9 241.9,269.0 C244.6,267.6 244.6,266.7 242.0,267.5 C240.9,267.8 240.0,267.8 240.0,267.4 C240.0,266.4 245.0,262.0 246.2,262.0 C246.7,262.0 246.9,261.3 246.6,260.4 C245.8,258.3 247.7,256.0 250.1,256.0 C252.2,256.0 252.4,255.2 251.1,253.1 C250.4,252.0 250.0,252.1 249.1,253.6 C248.5,254.7 248.0,254.9 248.0,254.2 C248.0,253.6 247.5,253.0 246.9,253.0 C246.3,253.0 246.0,253.6 246.3,254.4 C246.9,255.8 245.4,257.8 243.7,257.9 C243.3,257.9 241.6,258.7 240.0,259.5 C238.3,260.4 237.0,260.9 237.0,260.6 C237.0,259.2 238.3,257.0 239.2,257.0 C239.7,257.0 239.8,257.5 239.4,258.1 C239.0,258.8 240.1,258.2 241.9,256.9 C245.7,254.1 245.8,253.8 242.5,254.6 C240.7,255.0 240.0,254.8 240.0,253.7 C240.0,252.9 240.8,251.9 241.7,251.6 C243.2,251.0 243.2,250.8 242.0,249.9 C240.8,249.2 240.9,248.9 242.8,248.4 C244.4,247.9 244.8,247.5 244.0,247.0 C242.4,246.0 249.2,243.7 251.3,244.6 C252.5,245.0 252.7,244.7 252.3,243.1 C252.0,241.7 252.3,240.8 253.4,240.4 C254.3,240.1 254.7,239.4 254.4,238.9 C254.1,238.4 254.6,237.7 255.4,237.4 C256.3,237.1 257.0,236.3 257.0,235.8 C257.0,235.2 256.3,235.0 255.5,235.4 C254.3,235.8 254.0,234.9 254.0,230.1 C254.0,225.9 254.4,224.1 255.4,223.7 C256.2,223.4 257.1,223.6 257.4,224.3 C257.8,225.3 258.0,224.0 258.0,221.2 C258.0,220.8 260.4,220.3 263.5,220.0 L269.0,219.5 L264.2,214.5 L259.5,209.5 L262.7,206.7 C264.5,205.1 267.3,201.4 268.9,198.4 L271.8,193.0 L266.2,193.0 C262.3,193.0 259.5,193.6 257.3,194.9 C253.5,197.3 253.0,196.6 252.9,188.2 C252.9,185.1 252.5,180.7 252.0,178.5 C251.2,175.1 251.1,175.4 251.5,181.0 L251.9,187.5 L249.2,179.3 C246.6,171.4 244.2,166.9 245.4,172.0 C246.2,175.3 247.9,190.4 247.6,190.7 C247.5,190.9 245.9,188.7 244.1,186.0 C242.3,183.2 240.4,181.0 239.9,181.0 C239.4,181.0 239.0,179.7 239.0,178.1 C239.0,175.4 237.8,170.8 236.0,166.5 C235.5,165.4 234.9,163.3 234.6,161.8 C234.2,160.3 233.5,157.8 232.8,156.3 C232.2,154.8 231.6,153.0 231.5,152.4 C231.3,151.8 230.2,149.1 229.0,146.4 C227.1,142.1 226.7,141.7 225.8,143.3 C224.9,145.0 225.3,167.3 226.4,176.5 C226.6,178.2 226.5,178.7 226.3,177.7 C226.0,176.6 225.3,176.1 224.4,176.4 C223.5,176.7 222.8,176.1 222.4,174.5 C222.1,173.2 221.3,172.2 220.7,172.3 C220.0,172.4 219.2,169.5 218.5,165.0 L217.5,157.5 L215.3,160.6 C213.9,162.6 210.1,165.2 205.3,167.5 C201.0,169.6 197.4,171.4 197.2,171.5 C197.1,171.6 197.9,177.8 199.1,185.1 C200.3,192.5 201.2,200.6 201.2,203.2 C201.1,205.8 201.7,209.5 202.6,211.5 C203.4,213.4 203.8,215.0 203.5,215.0 C203.2,215.0 204.2,216.9 205.8,219.2 C211.9,228.4 217.9,240.5 226.6,261.5 C228.9,267.0 230.0,268.7 230.0,267.0 C230.1,264.7 230.2,264.7 231.0,266.5 C231.5,267.6 231.9,269.4 231.9,270.5 L231.9,272.5 L231.0,270.5 C229.9,268.0 229.7,270.4 230.7,274.0 L231.4,276.5 L232.2,274.0 C232.7,272.3 232.8,272.9 232.5,276.0 C232.2,279.4 232.3,279.9 232.9,278.0 C233.4,276.6 233.8,276.1 233.9,276.8 Z" fill="#6C5CE7" />
  <path d="M53.7,275.8 C53.4,275.1 53.2,275.6 53.2,277.0 C53.2,278.4 53.4,278.9 53.7,278.2 C53.9,277.6 53.9,276.4 53.7,275.8 Z" fill="#6C5CE7" />
  <path d="M27.0,277.0 C27.0,276.4 26.5,276.0 25.9,276.0 C25.4,276.0 25.2,276.4 25.5,277.0 C25.8,277.6 26.3,278.0 26.6,278.0 C26.8,278.0 27.0,277.6 27.0,277.0 Z" fill="#6C5CE7" />
  <path d="M284.5,276.0 C284.8,275.4 284.9,275.0 284.6,275.0 C284.4,275.0 283.5,274.7 282.7,274.4 C281.9,274.1 281.0,274.6 280.7,275.4 C280.0,277.2 283.4,277.7 284.5,276.0 Z" fill="#6C5CE7" />
  <path d="M24.2,273.5 C23.8,271.1 18.8,266.0 16.9,266.0 C16.4,266.0 16.0,267.2 16.0,268.7 C16.0,272.0 19.6,276.0 22.5,276.0 C24.3,276.0 24.6,275.6 24.2,273.5 Z" fill="#6C5CE7" />
  <path d="M267.0,273.6 C269.5,272.9 271.9,272.2 272.5,272.2 C273.0,272.2 273.6,271.7 273.8,271.1 C274.1,270.3 273.4,270.3 271.5,271.0 C270.1,271.5 268.1,272.0 267.2,271.9 C266.1,271.8 266.4,271.5 268.0,271.0 C270.3,270.2 270.2,270.1 267.1,270.3 C264.8,270.4 263.2,271.2 262.2,272.8 C260.5,275.4 261.0,275.4 267.0,273.6 Z" fill="#6C5CE7" />
  <path d="M242.4,272.5 C242.7,271.7 242.5,271.0 242.1,271.0 C241.6,271.0 241.0,271.7 240.6,272.5 C240.3,273.3 240.5,274.0 240.9,274.0 C241.4,274.0 242.0,273.3 242.4,272.5 Z" fill="#6C5CE7" />
  <path d="M279.5,273.0 C279.8,272.4 279.4,272.0 278.5,272.0 C277.6,272.0 277.2,272.4 277.5,273.0 C277.8,273.6 278.3,274.0 278.5,274.0 C278.7,274.0 279.2,273.6 279.5,273.0 Z" fill="#6C5CE7" />
  <path d="M287.0,270.9 C287.6,269.8 289.1,268.5 290.3,268.0 C292.5,267.1 292.5,267.1 290.4,267.1 C288.5,267.0 286.3,268.7 284.6,271.8 C284.2,272.4 284.3,273.0 284.9,273.0 C285.5,273.0 286.4,272.1 287.0,270.9 Z" fill="#6C5CE7" />
  <path d="M248.1,271.0 C248.6,271.0 249.0,270.6 249.0,270.1 C249.0,268.9 245.2,269.9 244.3,271.3 C243.9,272.0 244.3,272.1 245.4,271.7 C246.4,271.3 247.6,271.0 248.1,271.0 Z" fill="#6C5CE7" />
  <path d="M54.1,269.4 C54.1,268.3 54.4,268.0 54.7,268.8 C55.0,269.5 54.9,270.4 54.6,270.7 C54.3,271.1 54.0,270.5 54.1,269.4 Z" fill="#6C5CE7" />
  <path d="M31.6,266.8 C30.5,265.3 30.0,265.0 30.0,266.1 C30.0,267.7 32.1,270.3 32.8,269.5 C33.0,269.3 32.5,268.1 31.6,266.8 Z" fill="#6C5CE7" />
  <path d="M248.0,264.8 C248.0,263.5 244.8,264.2 244.3,265.7 C244.0,266.4 244.6,266.6 245.9,266.3 C247.1,266.0 248.0,265.3 248.0,264.8 Z" fill="#6C5CE7" />
  <path d="M252.0,266.0 C252.0,265.4 251.8,265.0 251.6,265.0 C251.3,265.0 250.8,265.4 250.5,266.0 C250.2,266.6 250.4,267.0 250.9,267.0 C251.5,267.0 252.0,266.6 252.0,266.0 Z" fill="#6C5CE7" />
  <path d="M296.0,265.0 C296.0,264.4 295.6,264.0 295.0,264.0 C294.4,264.0 294.0,264.4 294.0,265.0 C294.0,265.6 294.4,266.0 295.0,266.0 C295.6,266.0 296.0,265.6 296.0,265.0 Z" fill="#6C5CE7" />
  <path d="M18.6,262.5 C18.3,261.6 17.6,261.2 17.0,261.5 C16.4,261.9 16.5,262.6 17.3,263.5 C18.8,265.1 19.5,264.6 18.6,262.5 Z" fill="#6C5CE7" />
  <path d="M229.1,263.4 C229.1,262.3 229.4,262.0 229.7,262.8 C230.0,263.5 229.9,264.4 229.6,264.7 C229.3,265.1 229.0,264.5 229.1,263.4 Z" fill="#6C5CE7" />
  <path d="M4.0,262.0 C4.0,261.4 3.5,261.0 2.9,261.0 C2.4,261.0 2.2,261.4 2.5,262.0 C2.8,262.6 3.3,263.0 3.6,263.0 C3.8,263.0 4.0,262.6 4.0,262.0 Z" fill="#6C5CE7" />
  <path d="M239.8,262.3 C240.5,262.0 241.4,262.1 241.7,262.4 C242.1,262.7 241.5,263.0 240.4,262.9 C239.3,262.9 239.0,262.6 239.8,262.3 Z" fill="#6C5CE7" />
  <path d="M258.0,261.0 C258.0,260.5 257.3,260.3 256.5,260.6 C255.7,261.0 255.0,261.4 255.0,261.6 C255.0,261.8 255.7,262.0 256.5,262.0 C257.3,262.0 258.0,261.6 258.0,261.0 Z" fill="#6C5CE7" />
  <path d="M227.1,258.4 C227.1,257.3 227.4,257.0 227.7,257.8 C228.0,258.5 227.9,259.4 227.6,259.7 C227.3,260.1 227.0,259.5 227.1,258.4 Z" fill="#6C5CE7" />
  <path d="M3.7,252.8 C3.4,252.0 3.1,252.3 3.1,253.4 C3.0,254.5 3.3,255.1 3.6,254.7 C3.9,254.4 4.0,253.5 3.7,252.8 Z" fill="#6C5CE7" />
  <path d="M292.0,250.5 C295.7,248.6 296.8,246.5 297.4,240.7 L297.8,236.2 L292.8,238.8 C289.4,240.5 287.1,242.7 285.3,245.7 C284.0,248.1 282.3,250.0 281.7,250.0 C281.0,250.0 281.2,250.5 282.0,251.0 C284.2,252.4 288.7,252.2 292.0,250.5 Z" fill="#6C5CE7" />
  <path d="M253.5,247.2 C252.7,246.4 251.0,248.2 251.6,249.2 C252.0,249.8 252.5,249.7 253.1,248.9 C253.5,248.2 253.7,247.4 253.5,247.2 Z" fill="#6C5CE7" />
  <path d="M257.7,249.3 C257.3,249.0 257.6,248.0 258.3,247.2 C259.3,245.9 259.2,245.8 258.0,246.2 C256.1,246.8 255.4,250.0 257.1,250.0 C257.8,250.0 258.0,249.7 257.7,249.3 Z" fill="#6C5CE7" />
  <path d="M263.6,243.3 C262.9,242.6 261.0,244.0 261.0,245.2 C261.0,245.8 261.6,245.8 262.5,245.0 C263.4,244.3 263.8,243.5 263.6,243.3 Z" fill="#6C5CE7" />
  <path d="M7.0,240.0 C7.0,239.4 6.5,239.0 6.0,239.0 C5.5,239.0 5.0,239.4 5.0,240.0 C5.0,240.6 5.5,241.0 6.0,241.0 C6.5,241.0 7.0,240.6 7.0,240.0 Z" fill="#6C5CE7" />
  <path d="M18.0,236.0 C18.0,234.9 17.6,234.0 17.0,234.0 C16.4,234.0 16.0,234.9 16.0,236.0 C16.0,237.1 16.4,238.0 17.0,238.0 C17.6,238.0 18.0,237.1 18.0,236.0 Z" fill="#6C5CE7" />
  <path d="M271.5,236.0 C271.8,235.4 271.6,235.0 271.1,235.0 C270.5,235.0 270.0,235.4 270.0,236.0 C270.0,236.6 270.2,237.0 270.4,237.0 C270.7,237.0 271.2,236.6 271.5,236.0 Z" fill="#6C5CE7" />
  <path d="M24.0,234.4 C24.0,233.6 23.6,233.2 23.0,233.5 C22.4,233.8 22.0,234.5 22.0,235.1 C22.0,235.6 22.4,236.0 23.0,236.0 C23.6,236.0 24.0,235.3 24.0,234.4 Z" fill="#6C5CE7" />
  <path d="M262.0,234.0 C263.2,233.2 263.1,233.0 261.3,233.0 C260.1,233.0 258.8,233.4 258.5,234.0 C257.7,235.3 260.0,235.3 262.0,234.0 Z" fill="#6C5CE7" />
  <path d="M288.0,224.9 C288.0,223.7 287.4,223.3 286.0,223.7 C284.5,224.1 284.0,223.7 284.0,222.4 C283.9,221.3 283.3,222.3 282.5,224.5 C281.5,227.4 281.4,228.8 282.2,229.7 C283.1,230.8 283.7,230.7 285.7,228.9 C286.9,227.6 288.0,225.9 288.0,224.9 Z" fill="#6C5CE7" />
  <path d="M42.5,227.1 C38.7,224.8 34.2,219.8 29.4,212.5 L25.5,206.7 L25.8,194.9 C26.0,183.0 24.0,169.0 21.9,169.0 C21.4,169.0 21.0,167.6 21.0,165.9 C21.0,161.2 19.3,163.4 18.4,169.3 C17.3,177.4 17.8,191.2 19.5,196.0 C20.3,198.3 21.0,202.2 21.0,204.7 C21.0,207.4 21.4,208.9 22.0,208.5 C22.6,208.2 23.0,206.9 23.0,205.8 C23.0,202.1 24.3,204.8 26.2,212.2 C28.3,220.4 30.1,223.0 32.3,221.1 C33.5,220.2 33.9,220.4 34.4,222.5 C34.8,224.0 36.5,225.7 38.8,226.9 C43.5,229.4 46.5,229.6 42.5,227.1 Z" fill="#6C5CE7" />
  <path d="M163.7,215.4 C163.5,215.2 161.9,215.3 160.2,215.6 L157.1,216.2 L160.3,218.4 L163.5,220.6 L163.8,218.2 C164.0,216.9 164.0,215.6 163.7,215.4 Z" fill="#6C5CE7" />
  <path d="M128.4,215.7 L131.5,214.0 L128.0,214.6 C126.1,215.0 124.3,215.6 124.2,216.1 C124.0,216.6 123.2,217.0 122.4,217.0 C121.6,217.0 121.0,217.7 121.0,218.5 C121.0,219.8 121.3,219.9 123.1,218.8 C124.3,218.1 126.6,216.7 128.4,215.7 Z" fill="#6C5CE7" />
  <path d="M284.1,215.0 C284.7,215.0 285.0,214.2 284.9,213.2 C284.4,208.3 285.1,205.8 287.0,205.3 C288.7,204.8 289.0,204.0 288.9,198.6 C288.8,193.2 287.4,185.3 287.1,188.8 C287.0,189.5 286.6,189.9 286.1,189.6 C285.6,189.2 285.0,189.6 284.7,190.2 C284.5,190.9 284.0,188.8 283.6,185.5 C282.6,177.2 281.0,170.0 280.0,170.0 C279.6,170.0 279.4,169.2 279.7,168.1 C280.0,167.1 279.6,165.9 278.9,165.5 C278.0,164.9 277.9,166.8 278.3,174.1 C278.7,179.3 278.7,182.9 278.4,182.2 C278.1,181.6 277.5,181.2 277.0,181.5 C276.0,182.1 274.6,171.8 275.3,169.0 C275.6,167.9 275.4,167.2 274.9,167.6 C274.4,167.9 274.0,167.3 274.0,166.4 C274.0,163.4 272.2,166.2 270.9,171.2 C269.4,176.9 270.5,182.7 274.4,188.8 C276.5,192.2 278.5,200.0 280.5,212.5 C280.8,214.7 281.4,217.4 281.8,218.5 C282.4,220.2 282.5,220.1 282.8,217.8 C283.0,216.2 283.6,215.0 284.1,215.0 Z" fill="#6C5CE7" />
  <path d="M249.5,217.0 C249.2,216.4 249.4,216.0 249.9,216.0 C250.5,216.0 251.0,216.4 251.0,217.0 C251.0,217.6 250.8,218.0 250.6,218.0 C250.3,218.0 249.8,217.6 249.5,217.0 Z" fill="#6C5CE7" />
  <path d="M278.0,217.0 C278.0,216.4 277.6,216.0 277.0,216.0 C276.4,216.0 276.0,216.4 276.0,217.0 C276.0,217.6 276.4,218.0 277.0,218.0 C277.6,218.0 278.0,217.6 278.0,217.0 Z" fill="#6C5CE7" />
  <path d="M156.7,215.4 C156.4,215.1 155.5,215.0 154.8,215.3 C154.0,215.6 154.3,215.9 155.4,215.9 C156.5,216.0 157.1,215.7 156.7,215.4 Z" fill="#6C5CE7" />
  <path d="M243.3,213.4 C242.5,211.2 243.8,210.4 245.6,212.2 C247.0,213.6 247.0,213.8 245.5,214.3 C244.6,214.7 243.7,214.4 243.3,213.4 Z" fill="#6C5CE7" />
  <path d="M40.5,212.1 C40.8,211.6 40.6,210.9 40.0,210.5 C39.5,210.2 39.0,210.6 39.0,211.4 C39.0,213.2 39.6,213.5 40.5,212.1 Z" fill="#6C5CE7" />
  <path d="M124.2,200.4 C124.5,200.2 125.0,200.8 125.3,202.0 C125.6,203.1 125.4,204.0 124.9,204.0 C124.4,204.0 124.0,204.9 124.0,206.0 C124.0,207.4 124.7,208.0 126.1,208.0 C127.2,208.0 127.8,207.6 127.5,207.0 C127.2,206.4 127.5,206.0 128.3,206.0 C129.0,206.0 130.2,204.8 130.9,203.4 L132.1,200.8 L134.7,203.4 C137.6,206.3 140.2,207.0 137.7,204.2 C136.2,202.6 136.5,202.5 142.5,202.5 C146.5,202.5 148.5,202.9 147.9,203.4 C146.0,205.4 147.1,206.2 149.2,204.4 C150.4,203.4 151.0,203.1 150.5,203.9 C150.0,204.9 150.1,205.1 150.9,204.6 C151.5,204.2 151.8,203.4 151.5,202.9 C150.8,201.8 151.2,201.8 153.4,202.6 C154.3,202.9 155.0,203.8 155.0,204.5 C155.0,205.2 155.6,206.1 156.2,206.3 C157.0,206.6 156.8,206.9 155.8,206.9 C154.8,207.0 154.0,206.5 154.0,205.9 C154.0,205.4 153.6,205.2 153.0,205.5 C150.9,206.8 152.2,208.0 155.8,208.0 C157.9,208.0 160.6,208.7 161.9,209.6 L164.2,211.3 L163.9,205.5 L163.5,199.8 L167.1,198.6 C175.9,195.5 183.7,188.2 185.9,180.9 C187.6,175.3 187.4,161.8 185.5,154.5 C182.6,143.6 176.1,136.0 169.7,136.0 C162.5,136.0 155.0,147.3 152.8,161.1 L151.6,168.8 L148.4,166.4 C144.4,163.3 140.9,163.4 137.2,166.4 L134.3,168.9 L133.2,161.3 C131.0,147.3 123.8,136.0 117.2,136.0 C108.7,136.0 101.5,147.6 99.5,164.2 C98.1,176.3 103.4,188.8 112.5,194.8 C115.2,196.6 118.6,198.4 120.0,198.6 C122.5,199.1 122.6,199.4 122.4,206.3 L122.1,213.5 L122.9,207.2 C123.3,203.8 123.9,200.7 124.2,200.4 Z" fill="#6C5CE7" />
  <path d="M127.7,212.4 C127.4,212.1 126.5,212.0 125.8,212.3 C125.0,212.6 125.3,212.9 126.4,212.9 C127.5,213.0 128.1,212.7 127.7,212.4 Z" fill="#6C5CE7" />
  <path d="M43.7,207.2 C43.4,206.3 43.2,207.1 43.2,209.0 C43.2,210.9 43.4,211.7 43.7,210.8 C43.9,209.8 43.9,208.2 43.7,207.2 Z" fill="#6C5CE7" />
  <path d="M81.1,210.4 C81.1,209.3 81.4,209.0 81.7,209.8 C82.0,210.5 81.9,211.4 81.6,211.7 C81.3,212.1 81.0,211.5 81.1,210.4 Z" fill="#6C5CE7" />
  <path d="M133.0,210.4 C133.0,210.2 131.3,210.0 129.2,210.0 C126.9,210.0 126.0,210.3 126.8,210.9 C128.0,211.6 133.0,211.3 133.0,210.4 Z" fill="#6C5CE7" />
  <path d="M140.5,209.0 C140.1,208.4 141.0,208.0 142.5,208.0 C144.0,208.0 144.9,208.4 144.5,209.0 C144.2,209.6 144.4,210.0 145.0,210.0 C145.6,210.0 146.0,209.2 145.8,208.2 C145.6,207.1 144.5,206.5 142.5,206.5 C140.5,206.5 139.4,207.1 139.2,208.2 C139.0,209.2 139.4,210.0 140.0,210.0 C140.6,210.0 140.8,209.6 140.5,209.0 Z" fill="#6C5CE7" />
  <path d="M37.0,208.6 C37.0,208.3 36.5,207.8 36.0,207.5 C35.5,207.2 35.0,207.4 35.0,207.9 C35.0,208.5 35.5,209.0 36.0,209.0 C36.5,209.0 37.0,208.8 37.0,208.6 Z" fill="#6C5CE7" />
  <path d="M138.0,208.6 C138.0,208.3 137.6,207.8 137.0,207.5 C136.4,207.2 136.0,207.4 136.0,207.9 C136.0,208.5 136.4,209.0 137.0,209.0 C137.6,209.0 138.0,208.8 138.0,208.6 Z" fill="#6C5CE7" />
  <path d="M162.1,207.4 C162.1,206.3 162.4,206.0 162.7,206.8 C163.0,207.5 162.9,208.4 162.6,208.7 C162.3,209.1 162.0,208.5 162.1,207.4 Z" fill="#6C5CE7" />
  <path d="M135.4,207.1 C136.4,205.5 133.3,205.1 131.3,206.5 C129.6,207.8 129.7,207.9 132.2,208.0 C133.7,208.0 135.1,207.6 135.4,207.1 Z" fill="#6C5CE7" />
  <path d="M246.0,206.8 C246.0,205.9 246.4,204.8 247.0,204.5 C248.3,203.7 248.3,205.0 247.0,207.0 C246.2,208.3 246.0,208.3 246.0,206.8 Z" fill="#6C5CE7" />
  <path d="M128.8,200.3 C129.5,200.0 130.4,200.1 130.7,200.4 C131.1,200.7 130.5,201.0 129.4,200.9 C128.3,200.9 128.0,200.6 128.8,200.3 Z" fill="#6C5CE7" />
  <path d="M32.0,196.0 C32.0,195.4 31.6,195.0 31.0,195.0 C30.4,195.0 30.0,195.4 30.0,196.0 C30.0,196.6 30.4,197.0 31.0,197.0 C31.6,197.0 32.0,196.6 32.0,196.0 Z" fill="#6C5CE7" />
  <path d="M57.9,194.5 C59.1,192.9 60.9,191.5 61.8,191.3 C64.6,190.8 74.1,190.8 74.6,191.2 C75.6,192.3 66.3,196.1 61.2,196.7 L55.6,197.3 L57.9,194.5 Z" fill="#6C5CE7" />
  <path d="M46.5,193.0 C46.8,192.4 46.4,192.0 45.5,192.0 C44.6,192.0 44.2,192.4 44.5,193.0 C44.8,193.6 45.3,194.0 45.5,194.0 C45.7,194.0 46.2,193.6 46.5,193.0 Z" fill="#6C5CE7" />
  <path d="M42.7,183.8 C42.4,183.0 42.1,183.3 42.1,184.4 C42.0,185.5 42.3,186.1 42.6,185.7 C42.9,185.4 43.0,184.5 42.7,183.8 Z" fill="#6C5CE7" />
  <path d="M134.9,178.2 C131.0,176.2 129.4,174.7 129.2,173.0 C128.8,170.8 129.0,170.7 130.6,172.0 C131.8,173.1 135.3,173.5 143.7,173.6 C149.9,173.7 155.4,174.0 155.8,174.4 C156.1,174.8 155.6,174.8 154.5,174.5 C153.1,174.0 152.9,174.1 153.8,174.7 C155.4,175.9 154.0,177.3 148.7,179.5 C143.6,181.6 141.0,181.4 134.9,178.2 Z" fill="#6C5CE7" />
  <path d="M141.7,178.4 C141.4,178.1 140.5,178.0 139.8,178.3 C139.0,178.6 139.3,178.9 140.4,178.9 C141.5,179.0 142.1,178.7 141.7,178.4 Z" fill="#6C5CE7" />
  <path d="M20.3,174.0 C20.3,171.5 20.5,170.5 20.7,171.8 C20.9,173.0 20.9,175.0 20.7,176.2 C20.5,177.5 20.3,176.5 20.3,174.0 Z" fill="#6C5CE7" />
  <path d="M220.2,176.0 C220.2,174.6 220.4,174.1 220.7,174.8 C220.9,175.4 220.9,176.6 220.7,177.2 C220.4,177.9 220.2,177.4 220.2,176.0 Z" fill="#6C5CE7" />
  <path d="M48.2,175.0 C48.2,173.6 48.4,173.1 48.7,173.8 C48.9,174.4 48.9,175.6 48.7,176.2 C48.4,176.9 48.2,176.4 48.2,175.0 Z" fill="#6C5CE7" />
  <path d="M136.0,176.0 C136.0,175.4 135.0,175.0 133.8,175.0 C131.9,175.0 131.8,175.2 133.0,176.0 C134.9,177.3 136.0,177.3 136.0,176.0 Z" fill="#6C5CE7" />
  <path d="M145.3,176.3 C144.0,176.1 141.8,176.1 140.3,176.3 C138.7,176.5 139.8,176.7 142.5,176.7 C145.2,176.7 146.5,176.5 145.3,176.3 Z" fill="#6C5CE7" />
  <path d="M152.2,175.3 C151.6,175.1 150.4,175.1 149.8,175.3 C149.1,175.6 149.6,175.8 151.0,175.8 C152.4,175.8 152.9,175.6 152.2,175.3 Z" fill="#6C5CE7" />
  <path d="M292.6,169.7 C292.1,166.0 291.5,164.3 290.4,164.3 C288.6,164.3 288.6,167.0 290.6,172.0 C292.7,177.3 293.4,176.5 292.6,169.7 Z" fill="#6C5CE7" />
  <path d="M156.1,172.4 C156.1,171.3 156.4,171.0 156.7,171.8 C157.0,172.5 156.9,173.4 156.6,173.7 C156.3,174.1 156.0,173.5 156.1,172.4 Z" fill="#6C5CE7" />
  <path d="M26.6,158.3 C26.4,158.0 25.2,158.3 24.1,158.9 C22.8,159.7 22.3,160.6 22.7,161.7 C23.1,162.8 23.5,163.0 23.8,162.2 C24.0,161.5 24.6,161.2 25.1,161.6 C25.6,161.9 25.6,162.8 25.0,163.9 C24.4,165.1 24.5,167.0 25.3,169.6 L26.5,173.5 L26.8,166.1 C27.0,162.1 26.9,158.6 26.6,158.3 Z" fill="#6C5CE7" />
  <path d="M46.0,167.6 C47.3,162.0 46.7,153.0 44.9,153.0 C44.4,153.0 44.0,156.5 44.0,160.8 C44.0,165.0 43.7,169.5 43.4,170.8 C43.0,172.0 43.2,173.0 43.7,173.0 C44.2,173.0 45.3,170.6 46.0,167.6 Z" fill="#6C5CE7" />
  <path d="M249.5,162.4 C248.5,158.3 247.4,155.0 246.9,155.0 C245.2,155.0 246.0,161.5 248.0,164.8 C249.1,166.6 250.0,169.0 250.1,170.3 C250.1,171.6 250.4,171.9 250.7,171.1 C251.0,170.4 250.5,166.4 249.5,162.4 Z" fill="#6C5CE7" />
  <path d="M113.6,168.8 C110.5,164.4 112.6,156.0 116.9,156.0 C119.4,156.0 121.0,158.1 121.6,162.2 C122.6,169.0 117.0,173.7 113.6,168.8 Z" fill="#6C5CE7" />
  <path d="M166.0,169.5 C164.4,167.6 164.4,161.1 165.9,158.2 C167.3,155.6 170.8,155.3 172.6,157.8 C174.6,160.4 174.4,167.4 172.2,169.3 C169.9,171.4 167.6,171.5 166.0,169.5 Z" fill="#6C5CE7" />
  <path d="M271.9,158.5 C271.9,155.4 271.7,154.9 271.0,156.5 C269.7,159.4 269.7,165.9 271.0,164.0 C271.5,163.2 271.9,160.7 271.9,158.5 Z" fill="#6C5CE7" />
  <path d="M63.0,156.8 C64.7,153.3 66.0,149.4 66.0,148.1 C66.0,145.7 66.0,145.7 67.5,147.6 C68.9,149.4 68.9,149.4 69.0,147.2 C69.0,143.1 71.7,138.3 76.9,133.1 C79.7,130.3 82.4,128.0 82.9,128.0 C83.5,128.0 84.3,127.3 84.8,126.4 C85.3,125.5 86.1,124.9 86.6,124.9 C88.3,125.0 91.0,123.9 91.0,122.9 C91.0,122.4 91.6,122.0 92.4,122.0 C93.2,122.0 94.5,121.3 95.4,120.5 C96.2,119.6 97.2,119.0 97.5,119.1 C98.3,119.3 112.4,114.7 113.0,114.0 C113.3,113.7 115.5,113.4 117.9,113.3 C120.3,113.1 122.8,112.7 123.4,112.2 C124.0,111.8 130.1,111.3 137.0,111.1 C150.0,110.8 166.2,112.8 175.3,115.7 C177.9,116.5 180.6,117.3 181.3,117.4 C183.5,117.9 188.4,120.0 194.8,123.3 C208.2,130.1 217.9,140.3 218.1,147.9 C218.1,151.1 218.3,151.2 219.1,149.4 C221.2,145.3 218.4,139.3 211.2,132.1 C207.6,128.5 203.8,123.9 202.9,122.0 C201.6,119.4 201.1,119.0 201.1,120.5 C200.9,122.4 200.9,122.4 199.9,120.6 C199.1,119.3 199.1,118.6 199.9,118.0 C201.5,117.1 200.3,112.6 198.0,110.5 C196.3,109.0 196.1,109.0 195.4,111.2 C195.0,112.5 194.7,114.4 194.9,115.5 C195.1,117.1 194.7,116.8 193.1,114.5 C191.9,112.8 191.2,110.9 191.5,110.2 C191.7,109.6 191.5,109.0 191.0,109.0 C190.4,109.0 190.0,108.3 190.0,107.5 C190.0,106.7 189.5,106.0 188.9,106.0 C188.4,106.0 188.1,105.6 188.4,105.1 C188.7,104.6 188.3,103.7 187.5,103.0 C186.7,102.3 186.0,101.1 186.0,100.4 C186.0,98.1 184.0,98.8 182.8,101.5 C182.2,102.8 180.5,104.3 178.9,104.9 C175.4,106.1 171.7,109.8 172.6,111.2 C173.1,112.0 172.6,112.1 170.9,111.7 C169.6,111.3 168.0,111.0 167.4,111.0 C166.8,111.0 166.4,109.6 166.4,107.9 C166.4,105.0 166.5,104.9 167.8,106.6 C169.2,108.4 169.2,108.4 168.7,106.2 C168.3,104.6 168.6,104.0 169.8,104.0 C170.8,104.0 169.8,102.8 167.5,101.3 C164.5,99.2 163.9,98.5 165.2,98.2 C167.3,97.8 167.4,97.3 165.7,95.5 C164.9,94.8 163.2,94.4 161.7,94.7 C160.0,95.0 159.0,94.8 159.0,94.0 C159.0,93.3 159.8,93.1 161.2,93.6 C163.4,94.2 163.4,94.2 161.0,92.1 L158.5,89.9 L161.2,90.3 C163.4,90.6 163.7,90.4 162.8,89.1 C162.2,88.1 162.2,86.2 162.7,84.0 L163.7,80.5 L164.4,85.5 C165.4,91.7 165.8,92.4 167.6,90.9 C168.7,90.0 169.0,90.3 169.1,92.6 C169.1,94.9 169.3,95.1 169.9,93.6 C170.6,91.9 170.8,92.0 172.8,94.6 C174.0,96.2 175.0,96.9 175.0,96.2 C175.0,95.6 175.5,95.0 176.1,95.0 C176.8,95.0 176.9,96.1 176.4,98.2 C175.8,101.0 175.9,101.3 177.2,100.2 C178.0,99.6 179.0,99.3 179.3,99.6 C179.6,100.0 178.9,101.1 177.7,102.1 C176.4,103.2 176.0,103.9 176.8,104.0 C177.6,104.0 179.5,102.6 181.2,101.0 C182.9,99.3 185.9,97.1 187.9,96.0 C191.3,94.3 191.7,94.3 192.7,95.8 C193.8,97.4 193.9,97.4 193.9,95.8 C194.0,94.8 193.5,94.0 192.9,94.0 C192.3,94.0 194.1,92.2 196.9,90.0 C202.6,85.5 203.7,82.0 199.5,82.0 C195.9,82.0 186.5,85.7 184.5,88.0 C182.2,90.6 181.4,90.5 180.5,87.8 C179.8,85.6 179.7,85.6 179.0,88.5 C178.3,91.3 178.2,91.2 178.1,87.1 C178.0,83.3 178.2,82.9 179.5,84.0 C181.7,85.8 181.5,83.4 179.0,78.7 C176.6,74.2 176.5,73.3 178.6,75.1 C180.1,76.3 180.2,76.2 179.5,74.0 C178.5,70.6 176.9,69.1 176.2,70.9 C175.9,71.9 175.4,71.6 174.4,69.9 C172.6,66.7 172.7,69.1 174.5,76.0 C175.8,80.9 175.8,81.7 174.4,83.8 L172.8,86.2 L169.0,80.4 C167.0,77.1 163.9,73.2 162.1,71.6 C160.4,69.9 159.0,68.2 159.0,67.7 C159.0,67.1 159.8,67.4 160.8,68.3 C162.5,69.8 162.6,69.7 162.7,66.0 C162.8,63.8 162.4,61.8 161.9,61.4 C161.3,61.1 161.2,61.9 161.6,63.7 L162.2,66.5 L160.1,63.2 C158.9,61.4 157.4,60.0 156.7,60.1 C152.8,60.6 151.9,59.2 154.6,56.6 C156.6,54.5 154.6,54.6 151.4,56.7 C149.0,58.2 148.9,58.2 148.3,56.2 C148.0,55.0 147.4,54.3 146.9,54.5 C145.8,55.3 142.0,52.8 142.0,51.4 C142.0,50.0 144.8,48.8 146.1,49.6 C147.5,50.4 147.2,48.7 145.5,46.3 C144.6,45.0 143.3,44.3 142.5,44.6 C140.7,45.3 140.5,43.9 142.2,42.2 C143.7,40.7 142.3,40.6 138.1,42.1 C134.5,43.4 134.3,44.0 137.0,46.3 C139.4,48.3 139.6,50.0 137.4,50.0 C136.6,50.0 134.6,51.3 133.0,52.9 C131.4,54.5 130.0,55.4 129.8,54.9 C129.6,54.4 128.5,54.3 127.2,54.7 C125.0,55.2 120.0,63.2 120.0,66.2 C120.0,68.2 121.9,65.8 124.6,60.4 C126.7,56.0 126.9,55.8 126.7,58.5 C126.5,60.2 126.0,62.1 125.6,62.8 C125.2,63.5 125.1,64.4 125.4,64.9 C125.7,65.4 125.3,66.1 124.4,66.4 C123.5,66.7 123.0,67.6 123.3,68.3 C123.6,69.0 122.5,71.5 120.8,73.9 C119.2,76.3 117.6,79.6 117.3,81.3 C116.8,83.7 116.5,84.0 116.0,82.6 C115.5,80.9 115.1,81.0 112.2,83.5 C110.5,84.9 109.1,86.4 109.2,86.8 C109.3,87.2 108.2,90.0 106.8,93.0 C105.4,96.0 104.0,99.5 103.6,100.8 C103.2,102.0 102.2,103.0 101.4,103.0 C100.6,103.0 100.0,103.5 100.0,104.1 C100.0,104.6 100.5,104.8 101.0,104.5 C101.5,104.2 102.0,104.6 102.0,105.4 C102.0,106.3 101.6,107.0 101.0,107.0 C100.5,107.0 100.3,107.8 100.6,108.8 C101.1,110.1 101.0,110.2 100.2,109.1 C99.6,108.3 98.7,108.1 98.0,108.5 C97.0,109.1 96.8,108.3 97.3,104.7 C97.7,102.1 97.6,100.0 97.2,100.0 C95.6,100.0 92.2,108.5 92.2,112.4 C92.2,114.5 91.7,116.7 91.0,117.4 C90.0,118.2 89.9,117.4 90.4,113.5 L91.0,108.5 L88.4,115.5 C86.3,121.2 85.0,123.1 81.4,125.8 L77.0,129.1 L77.0,125.8 C77.0,123.3 76.7,122.9 76.0,124.0 C75.5,124.8 75.0,126.7 75.0,128.2 C75.0,129.7 73.6,132.9 71.9,135.3 C70.2,137.8 68.4,141.3 68.0,143.1 C67.4,145.8 67.2,144.8 67.1,138.5 C66.9,131.2 66.8,130.7 65.4,132.5 C64.6,133.6 64.2,135.0 64.4,135.7 C64.7,136.4 64.7,137.7 64.4,138.5 C63.8,139.9 63.6,139.8 62.4,138.3 C61.2,136.7 61.1,136.7 61.0,138.2 C61.0,139.1 61.6,140.0 62.2,140.3 C63.2,140.6 63.2,141.0 62.3,142.2 C60.4,144.4 58.0,163.0 59.5,163.0 C59.8,163.0 61.4,160.2 63.0,156.8 Z" fill="#6C5CE7" />
  <path d="M116.5,160.2 C116.5,158.4 114.5,158.7 114.2,160.6 C113.9,161.6 114.3,162.1 115.2,161.8 C115.9,161.5 116.5,160.8 116.5,160.2 Z" fill="#6C5CE7" />
  <path d="M169.5,160.2 C169.5,158.4 167.5,158.7 167.2,160.6 C166.9,161.6 167.3,162.1 168.2,161.8 C168.9,161.5 169.5,160.8 169.5,160.2 Z" fill="#6C5CE7" />
  <path d="M289.7,158.8 C289.4,158.0 289.1,158.3 289.1,159.4 C289.0,160.5 289.3,161.1 289.6,160.7 C289.9,160.4 290.0,159.5 289.7,158.8 Z" fill="#6C5CE7" />
  <path d="M237.4,150.0 C235.7,140.0 235.2,138.4 235.1,142.6 C235.0,145.8 236.8,156.9 237.7,158.3 C238.9,160.2 238.8,158.0 237.4,150.0 Z" fill="#6C5CE7" />
  <path d="M31.4,154.7 C32.5,153.9 34.6,151.4 35.8,149.1 L38.2,144.9 L34.3,145.6 C32.2,146.0 29.6,146.7 28.6,147.2 C27.2,148.0 26.5,147.8 25.8,146.6 C24.4,144.1 23.3,144.7 21.6,149.0 C19.5,154.3 19.6,155.3 22.0,154.7 C23.7,154.3 24.0,154.5 23.5,156.0 C23.0,157.7 23.2,157.8 26.1,157.0 C27.8,156.5 30.2,155.4 31.4,154.7 Z" fill="#6C5CE7" />
  <path d="M55.5,143.6 C55.3,138.2 55.3,138.0 55.9,142.0 L56.6,146.5 L57.4,142.7 C58.4,138.4 56.7,132.9 54.9,134.7 C53.9,135.7 51.0,152.3 51.1,156.5 C51.1,157.8 51.9,157.0 53.4,154.1 C55.2,150.6 55.7,148.3 55.5,143.6 Z" fill="#6C5CE7" />
  <path d="M19.4,149.0 C19.9,145.8 19.9,145.6 18.5,147.4 C17.7,148.5 17.0,150.5 17.0,151.9 C17.0,155.3 18.6,153.4 19.4,149.0 Z" fill="#6C5CE7" />
  <path d="M27.0,153.0 C27.0,152.4 27.5,152.0 28.1,152.0 C28.6,152.0 28.8,152.4 28.5,153.0 C28.2,153.6 27.7,154.0 27.4,154.0 C27.2,154.0 27.0,153.6 27.0,153.0 Z" fill="#6C5CE7" />
  <path d="M49.0,149.2 C49.0,145.8 48.7,144.9 48.0,146.0 C46.4,148.5 46.9,154.0 48.7,154.0 C48.9,154.0 49.0,151.9 49.0,149.2 Z" fill="#6C5CE7" />
  <path d="M275.0,153.0 C275.0,152.4 274.6,152.0 274.0,152.0 C273.4,152.0 273.0,152.4 273.0,153.0 C273.0,153.6 273.4,154.0 274.0,154.0 C274.6,154.0 275.0,153.6 275.0,153.0 Z" fill="#6C5CE7" />
  <path d="M245.2,148.5 C245.0,146.6 244.6,145.0 244.4,145.0 C244.2,145.0 244.0,146.6 244.0,148.5 C244.0,150.4 244.4,152.0 244.8,152.0 C245.2,152.0 245.4,150.4 245.2,148.5 Z" fill="#6C5CE7" />
  <path d="M277.7,146.8 C277.5,146.1 278.0,145.0 278.9,144.3 C280.3,143.2 280.0,143.1 277.4,143.0 C273.4,143.0 271.1,145.4 273.7,146.9 C276.2,148.3 278.3,148.3 277.7,146.8 Z" fill="#6C5CE7" />
  <path d="M232.5,142.3 C231.7,136.9 228.3,127.3 226.9,126.5 C225.3,125.4 227.2,135.3 229.8,141.2 C231.1,144.4 232.5,147.0 232.8,147.0 C233.0,147.0 232.9,144.9 232.5,142.3 Z" fill="#6C5CE7" />
  <path d="M242.0,142.5 C241.3,141.6 240.5,141.2 240.3,141.4 C239.6,142.1 241.0,144.0 242.2,144.0 C242.8,144.0 242.8,143.4 242.0,142.5 Z" fill="#6C5CE7" />
  <path d="M222.7,138.3 C222.4,137.3 222.2,137.8 222.2,139.5 C222.2,141.2 222.4,141.9 222.7,141.3 C222.9,140.6 222.9,139.2 222.7,138.3 Z" fill="#6C5CE7" />
  <path d="M47.8,133.2 C47.4,125.6 46.0,126.8 46.0,134.8 C46.0,139.6 46.3,141.1 47.0,140.0 C47.6,139.2 47.9,136.1 47.8,133.2 Z" fill="#6C5CE7" />
  <path d="M19.0,136.5 C18.3,135.6 17.5,135.2 17.3,135.4 C16.6,136.1 18.0,138.0 19.2,138.0 C19.8,138.0 19.8,137.4 19.0,136.5 Z" fill="#6C5CE7" />
  <path d="M42.0,135.5 C42.0,134.7 41.6,134.0 41.1,134.0 C39.8,134.0 38.9,135.6 39.7,136.4 C40.8,137.5 42.0,137.0 42.0,135.5 Z" fill="#6C5CE7" />
  <path d="M63.8,132.1 C65.1,127.8 65.2,123.5 64.1,120.6 C63.0,117.8 62.3,120.1 61.4,128.9 C60.7,136.8 61.9,138.5 63.8,132.1 Z" fill="#6C5CE7" />
  <path d="M58.0,130.8 C58.0,128.7 57.7,127.9 57.0,128.6 C56.5,129.1 56.3,130.5 56.6,131.8 C57.5,134.9 58.0,134.5 58.0,130.8 Z" fill="#6C5CE7" />
  <path d="M297.7,130.8 C297.4,130.0 297.1,130.3 297.1,131.4 C297.0,132.5 297.3,133.1 297.6,132.7 C297.9,132.4 298.0,131.5 297.7,130.8 Z" fill="#6C5CE7" />
  <path d="M222.1,119.7 C220.4,118.0 220.8,116.0 222.8,116.0 C223.8,116.0 225.1,115.5 225.8,114.8 C226.7,113.9 227.0,114.3 227.0,116.7 C227.0,118.4 227.3,120.6 227.6,121.5 C228.9,124.8 230.6,119.8 230.2,113.8 C229.8,107.7 228.6,106.3 227.6,110.5 L226.9,113.1 L223.6,109.5 C221.1,106.9 220.1,106.3 219.7,107.4 C219.4,108.2 217.6,109.0 215.8,109.2 L212.5,109.5 L216.1,113.3 C219.2,116.4 219.9,118.1 220.4,122.8 C221.5,131.7 222.5,133.3 222.8,126.6 C223.0,123.4 222.6,120.2 222.1,119.7 Z" fill="#6C5CE7" />
  <path d="M247.0,126.8 C247.0,124.7 246.7,123.9 246.0,124.6 C245.5,125.1 245.3,126.5 245.6,127.8 C246.5,130.9 247.0,130.5 247.0,126.8 Z" fill="#6C5CE7" />
  <path d="M211.9,121.0 C210.7,113.3 210.0,112.2 210.0,117.7 C210.0,121.5 211.8,128.5 212.6,127.7 C212.8,127.5 212.5,124.5 211.9,121.0 Z" fill="#6C5CE7" />
  <path d="M231.1,124.4 C230.2,121.6 230.2,121.5 230.1,124.1 C230.0,125.5 230.3,127.0 230.7,127.3 C231.8,128.5 232.0,127.5 231.1,124.4 Z" fill="#6C5CE7" />
  <path d="M54.3,123.2 C54.7,121.1 54.6,120.1 54.0,120.5 C53.4,120.8 53.0,122.5 53.0,124.2 C53.0,128.0 53.5,127.6 54.3,123.2 Z" fill="#6C5CE7" />
  <path d="M71.1,122.7 C69.8,121.4 68.5,122.4 69.5,123.9 C69.8,124.5 70.6,124.7 71.2,124.4 C71.8,124.0 71.8,123.4 71.1,122.7 Z" fill="#6C5CE7" />
  <path d="M66.7,120.8 C66.4,120.0 66.1,120.3 66.1,121.4 C66.0,122.5 66.3,123.1 66.6,122.7 C66.9,122.4 67.0,121.5 66.7,120.8 Z" fill="#6C5CE7" />
  <path d="M75.7,117.2 C75.4,116.3 75.2,117.1 75.2,119.0 C75.2,120.9 75.4,121.7 75.7,120.8 C75.9,119.8 75.9,118.2 75.7,117.2 Z" fill="#6C5CE7" />
  <path d="M54.7,116.8 C54.4,116.0 54.1,116.3 54.1,117.4 C54.0,118.5 54.3,119.1 54.6,118.7 C54.9,118.4 55.0,117.5 54.7,116.8 Z" fill="#6C5CE7" />
  <path d="M67.0,115.8 C67.0,113.3 66.7,112.9 66.0,114.0 C64.7,116.0 64.7,119.0 66.0,119.0 C66.5,119.0 67.0,117.5 67.0,115.8 Z" fill="#6C5CE7" />
  <path d="M48.1,113.0 C50.5,111.4 53.5,110.0 54.8,110.0 C58.6,110.0 57.2,108.2 52.8,107.5 C50.4,107.1 47.5,106.1 46.3,105.3 C44.1,103.8 42.0,104.2 42.0,106.1 C42.0,106.6 42.6,107.0 43.4,107.0 C46.2,107.0 46.2,109.2 43.5,111.4 C41.8,112.7 41.0,114.2 41.4,114.8 C42.4,116.5 43.2,116.3 48.1,113.0 Z" fill="#6C5CE7" />
  <path d="M177.5,113.5 L173.5,112.3 L177.0,111.3 C179.7,110.5 180.7,110.6 181.3,111.7 C182.8,114.2 181.6,114.7 177.5,113.5 Z" fill="#6C5CE7" />
  <path d="M77.7,108.2 C77.4,107.3 77.2,108.1 77.2,110.0 C77.2,111.9 77.4,112.7 77.7,111.8 C77.9,110.8 77.9,109.2 77.7,108.2 Z" fill="#6C5CE7" />
  <path d="M108.0,110.5 C109.4,108.9 109.9,108.0 109.2,108.4 C108.6,108.8 108.0,108.6 108.0,108.0 C108.0,107.3 108.9,107.1 110.2,107.4 C111.5,107.7 111.9,107.7 111.2,107.4 C109.9,106.8 110.5,105.0 112.1,105.0 C112.7,105.0 112.8,105.5 112.5,106.0 C111.6,107.5 113.1,107.1 117.0,104.9 C120.3,103.0 118.9,102.8 114.6,104.6 C113.3,105.1 112.9,105.0 113.3,104.3 C113.7,103.7 113.4,103.0 112.8,102.7 C112.1,102.5 112.9,101.6 114.7,100.7 C118.7,98.6 120.2,98.6 117.5,100.6 C115.6,102.1 115.6,102.1 118.4,101.4 C120.5,100.9 121.1,101.0 120.6,101.9 C120.0,102.8 120.8,103.0 123.7,102.6 C125.8,102.3 127.0,102.2 126.3,102.6 C125.7,102.9 125.4,104.3 125.6,105.8 C126.0,108.5 125.9,108.6 117.6,110.3 C112.9,111.2 108.3,112.3 107.3,112.7 C105.9,113.2 106.1,112.7 108.0,110.5 Z" fill="#6C5CE7" />
  <path d="M74.0,109.1 C75.5,106.2 75.3,105.8 72.4,106.2 C70.9,106.4 69.1,107.5 68.2,108.8 C66.8,110.9 66.9,111.0 69.8,111.0 C71.9,111.0 73.3,110.3 74.0,109.1 Z" fill="#6C5CE7" />
  <path d="M195.2,107.0 L195.6,104.5 L196.8,107.2 C197.4,108.8 198.2,110.0 198.5,110.0 C199.5,110.0 197.8,104.5 196.3,102.8 C195.4,101.9 195.1,100.6 195.6,99.8 C196.0,99.1 196.0,98.8 195.5,99.2 C195.1,99.6 194.1,99.5 193.3,98.8 C191.2,97.1 191.0,98.2 192.1,104.9 C193.2,111.1 194.4,111.9 195.2,107.0 Z" fill="#6C5CE7" />
  <path d="M60.7,108.3 C59.8,107.4 58.7,107.0 58.3,107.4 C57.9,107.8 58.2,108.5 59.0,109.0 C61.5,110.6 62.5,110.1 60.7,108.3 Z" fill="#6C5CE7" />
  <path d="M88.0,102.9 C90.3,95.2 90.1,93.0 87.6,97.9 C86.0,101.0 84.3,110.0 85.3,110.0 C85.6,110.0 86.8,106.8 88.0,102.9 Z" fill="#6C5CE7" />
  <path d="M160.8,109.5 C160.5,109.2 157.0,108.6 152.9,108.1 L145.5,107.3 L151.2,107.1 C155.5,107.0 157.0,106.6 157.0,105.6 C157.0,104.8 157.6,103.9 158.2,103.7 C159.0,103.4 158.9,103.1 157.8,103.1 C156.9,103.0 155.8,102.5 155.4,101.9 C155.0,101.1 155.8,101.0 158.1,101.5 C161.1,102.2 161.3,102.1 160.2,100.7 C158.5,98.6 160.1,97.8 162.5,99.6 C163.6,100.4 163.9,101.0 163.1,101.0 C161.2,101.0 162.5,107.1 164.7,108.8 C166.2,109.9 166.1,110.0 163.9,110.0 C162.5,110.0 161.1,109.8 160.8,109.5 Z" fill="#6C5CE7" />
  <path d="M186.6,108.5 C186.3,107.7 186.5,106.8 186.9,106.5 C187.4,106.2 188.0,106.7 188.4,107.5 C188.7,108.3 188.5,109.2 188.1,109.5 C187.6,109.8 187.0,109.3 186.6,108.5 Z" fill="#6C5CE7" />
  <path d="M130.2,107.3 C131.8,107.1 134.2,107.1 135.8,107.3 C137.3,107.5 136.0,107.7 133.0,107.7 C130.0,107.7 128.7,107.5 130.2,107.3 Z" fill="#6C5CE7" />
  <path d="M207.3,102.9 C207.8,102.5 207.4,101.1 206.4,99.4 L204.5,96.6 L204.2,99.9 C203.8,103.8 204.9,107.4 205.8,105.0 C206.1,104.2 206.7,103.2 207.3,102.9 Z" fill="#6C5CE7" />
  <path d="M110.0,104.0 C110.0,103.5 110.5,103.0 111.1,103.0 C111.6,103.0 111.8,103.5 111.5,104.0 C111.2,104.5 110.7,105.0 110.4,105.0 C110.2,105.0 110.0,104.5 110.0,104.0 Z" fill="#6C5CE7" />
  <path d="M228.0,104.1 C228.0,103.6 227.3,102.7 226.5,102.0 C225.3,101.0 225.0,101.0 225.0,102.2 C225.0,103.0 225.3,104.0 225.7,104.3 C226.6,105.3 228.0,105.2 228.0,104.1 Z" fill="#6C5CE7" />
  <path d="M78.5,99.2 C78.8,97.2 79.3,94.5 79.6,93.2 C79.8,92.0 79.7,91.0 79.3,91.0 C77.9,91.0 76.0,96.3 76.0,100.3 C76.0,105.0 77.7,104.3 78.5,99.2 Z" fill="#6C5CE7" />
  <path d="M46.0,102.6 C46.0,102.3 45.5,101.8 45.0,101.5 C44.5,101.2 44.0,101.4 44.0,101.9 C44.0,102.5 44.5,103.0 45.0,103.0 C45.5,103.0 46.0,102.8 46.0,102.6 Z" fill="#6C5CE7" />
  <path d="M95.0,97.7 C95.0,95.1 93.5,96.5 92.5,100.0 C91.8,102.2 91.9,102.3 93.4,101.1 C94.3,100.4 95.0,98.8 95.0,97.7 Z" fill="#6C5CE7" />
  <path d="M102.0,101.0 C102.0,100.5 101.8,100.0 101.6,100.0 C101.3,100.0 100.8,100.5 100.5,101.0 C100.2,101.5 100.4,102.0 100.9,102.0 C101.5,102.0 102.0,101.5 102.0,101.0 Z" fill="#6C5CE7" />
  <path d="M44.0,100.0 C44.0,99.5 43.5,99.0 42.9,99.0 C42.4,99.0 42.2,99.5 42.5,100.0 C42.8,100.5 43.3,101.0 43.6,101.0 C43.8,101.0 44.0,100.5 44.0,100.0 Z" fill="#6C5CE7" />
  <path d="M136.8,100.3 C137.5,100.0 138.4,100.1 138.7,100.4 C139.1,100.7 138.5,101.0 137.4,100.9 C136.3,100.9 136.0,100.6 136.8,100.3 Z" fill="#6C5CE7" />
  <path d="M173.7,97.8 C173.4,97.1 173.2,97.6 173.2,99.0 C173.2,100.4 173.4,100.9 173.7,100.2 C173.9,99.6 173.9,98.4 173.7,97.8 Z" fill="#6C5CE7" />
  <path d="M190.0,98.6 C190.0,98.3 189.6,97.8 189.0,97.5 C188.4,97.2 188.0,97.4 188.0,97.9 C188.0,98.5 188.4,99.0 189.0,99.0 C189.6,99.0 190.0,98.8 190.0,98.6 Z" fill="#6C5CE7" />
  <path d="M244.0,96.9 C244.0,96.4 243.3,96.0 242.5,96.0 C241.0,96.0 240.5,97.2 241.6,98.3 C242.4,99.1 244.0,98.2 244.0,96.9 Z" fill="#6C5CE7" />
  <path d="M40.4,96.2 C40.0,95.3 39.2,91.7 38.6,88.2 C37.6,82.7 37.0,81.6 34.2,79.8 L31.0,77.8 L31.1,80.2 C31.1,81.4 31.4,81.9 31.7,81.3 C32.0,80.3 32.7,80.4 34.4,81.6 C36.2,82.7 36.9,84.4 37.4,88.6 C38.0,94.0 39.4,98.0 40.6,98.0 C41.0,98.0 40.9,97.2 40.4,96.2 Z" fill="#6C5CE7" />
  <path d="M45.9,86.6 C46.0,76.6 45.0,79.1 44.6,89.6 C44.5,94.5 44.7,97.4 45.1,96.0 C45.5,94.6 45.8,90.4 45.9,86.6 Z" fill="#6C5CE7" />
  <path d="M122.0,97.0 C122.8,96.5 124.2,96.0 125.0,96.0 C126.3,96.0 126.3,96.1 125.0,97.0 C124.2,97.5 122.8,98.0 122.0,98.0 C120.7,98.0 120.7,97.9 122.0,97.0 Z" fill="#6C5CE7" />
  <path d="M202.0,96.4 C202.0,95.6 201.6,95.2 201.0,95.5 C200.4,95.8 200.0,96.5 200.0,97.1 C200.0,97.6 200.4,98.0 201.0,98.0 C201.6,98.0 202.0,97.3 202.0,96.4 Z" fill="#6C5CE7" />
  <path d="M54.0,93.2 C54.0,91.7 53.8,91.7 53.0,93.0 C51.7,95.0 51.7,96.3 53.0,95.5 C53.5,95.2 54.0,94.1 54.0,93.2 Z" fill="#6C5CE7" />
  <path d="M119.0,95.0 C119.0,94.5 119.9,94.0 121.1,94.0 C122.2,94.0 122.8,94.5 122.5,95.0 C122.2,95.5 121.2,96.0 120.4,96.0 C119.6,96.0 119.0,95.5 119.0,95.0 Z" fill="#6C5CE7" />
  <path d="M157.0,94.9 C157.0,94.4 157.4,94.2 158.0,94.5 C158.6,94.8 159.0,95.3 159.0,95.6 C159.0,95.8 158.6,96.0 158.0,96.0 C157.4,96.0 157.0,95.5 157.0,94.9 Z" fill="#6C5CE7" />
  <path d="M101.7,87.9 C101.9,83.8 101.7,83.0 101.0,84.8 C100.5,86.0 99.5,87.0 98.8,87.0 C97.8,87.0 97.8,87.2 98.9,87.9 C99.7,88.5 100.1,89.8 99.8,91.4 C99.4,93.1 99.7,93.9 100.4,93.7 C101.0,93.5 101.6,90.9 101.7,87.9 Z" fill="#6C5CE7" />
  <path d="M123.8,93.3 C124.5,93.0 125.4,93.1 125.7,93.4 C126.1,93.7 125.5,94.0 124.4,93.9 C123.3,93.9 123.0,93.6 123.8,93.3 Z" fill="#6C5CE7" />
  <path d="M171.1,90.4 C171.1,89.3 171.4,89.0 171.7,89.8 C172.0,90.5 171.9,91.4 171.6,91.7 C171.3,92.1 171.0,91.5 171.1,90.4 Z" fill="#6C5CE7" />
  <path d="M88.9,85.7 C89.0,85.2 88.5,85.2 88.0,85.5 C87.5,85.8 87.0,87.1 87.1,88.3 C87.1,90.4 87.2,90.4 88.0,88.5 C88.5,87.4 88.9,86.1 88.9,85.7 Z" fill="#6C5CE7" />
  <path d="M92.0,85.6 C91.9,83.6 91.8,83.6 90.5,86.0 C88.6,89.3 88.6,90.6 90.5,89.0 C91.3,88.3 92.0,86.8 92.0,85.6 Z" fill="#6C5CE7" />
  <path d="M113.0,89.6 C113.0,89.4 113.6,88.0 114.4,86.6 C115.3,84.8 115.9,84.4 116.3,85.3 C116.5,86.0 116.2,87.4 115.5,88.3 C114.4,89.8 113.0,90.6 113.0,89.6 Z" fill="#6C5CE7" />
  <path d="M220.0,89.0 C220.0,88.5 219.6,88.0 219.0,88.0 C218.4,88.0 218.0,88.5 218.0,89.0 C218.0,89.5 218.4,90.0 219.0,90.0 C219.6,90.0 220.0,89.5 220.0,89.0 Z" fill="#6C5CE7" />
  <path d="M106.9,84.9 C108.3,80.9 108.3,77.0 107.0,77.0 C106.1,77.0 105.7,78.2 104.6,84.8 C103.9,88.9 105.5,89.0 106.9,84.9 Z" fill="#6C5CE7" />
  <path d="M213.5,87.1 C213.8,86.6 213.6,85.9 213.0,85.5 C212.5,85.2 212.0,85.6 212.0,86.4 C212.0,88.2 212.6,88.5 213.5,87.1 Z" fill="#6C5CE7" />
  <path d="M252.7,87.4 C252.4,87.1 251.5,87.0 250.8,87.3 C250.0,87.6 250.3,87.9 251.4,87.9 C252.5,88.0 253.1,87.7 252.7,87.4 Z" fill="#6C5CE7" />
  <path d="M249.2,86.3 C248.6,86.1 247.4,86.1 246.8,86.3 C246.1,86.6 246.6,86.8 248.0,86.8 C249.4,86.8 249.9,86.6 249.2,86.3 Z" fill="#6C5CE7" />
  <path d="M89.4,82.6 C88.8,81.1 87.0,80.3 87.0,81.5 C87.0,82.3 89.4,84.9 89.8,84.5 C89.9,84.4 89.8,83.5 89.4,82.6 Z" fill="#6C5CE7" />
  <path d="M241.5,84.0 C241.2,83.5 239.9,83.0 238.7,83.1 C236.6,83.1 236.6,83.2 238.5,84.0 C241.3,85.2 242.2,85.2 241.5,84.0 Z" fill="#6C5CE7" />
  <path d="M66.0,82.5 C66.0,81.7 65.6,81.0 65.1,81.0 C63.8,81.0 62.9,82.6 63.7,83.4 C64.8,84.5 66.0,84.0 66.0,82.5 Z" fill="#6C5CE7" />
  <path d="M188.1,80.7 C187.3,79.9 187.0,80.0 187.0,81.1 C187.0,83.1 188.3,84.5 188.8,83.0 C189.1,82.3 188.7,81.3 188.1,80.7 Z" fill="#6C5CE7" />
  <path d="M277.0,83.0 C277.0,82.5 276.6,82.0 276.0,82.0 C275.4,82.0 275.0,82.5 275.0,83.0 C275.0,83.5 275.4,84.0 276.0,84.0 C276.6,84.0 277.0,83.5 277.0,83.0 Z" fill="#6C5CE7" />
  <path d="M114.0,78.2 C113.3,77.9 112.4,78.4 111.9,79.1 C110.3,81.6 111.0,82.3 113.1,80.4 C114.4,79.2 114.7,78.4 114.0,78.2 Z" fill="#6C5CE7" />
  <path d="M124.0,79.9 C124.0,79.4 124.5,79.2 125.0,79.5 C125.5,79.8 126.0,80.3 126.0,80.6 C126.0,80.8 125.5,81.0 125.0,81.0 C124.5,81.0 124.0,80.5 124.0,79.9 Z" fill="#6C5CE7" />
  <path d="M125.0,78.1 C125.0,76.4 126.8,76.0 127.4,77.5 C127.7,78.4 127.4,79.0 126.5,79.0 C125.7,79.0 125.0,78.6 125.0,78.1 Z" fill="#6C5CE7" />
  <path d="M171.5,77.8 C171.3,77.1 170.4,73.9 169.5,70.8 C168.5,67.0 167.2,64.7 165.8,63.9 C163.8,62.8 163.7,62.9 164.4,67.0 C164.8,69.4 166.3,73.0 167.8,75.1 C170.5,78.9 172.3,80.2 171.5,77.8 Z" fill="#6C5CE7" />
  <path d="M100.7,74.8 C100.4,74.0 100.1,74.3 100.1,75.4 C100.0,76.5 100.3,77.1 100.6,76.7 C100.9,76.4 101.0,75.5 100.7,74.8 Z" fill="#6C5CE7" />
  <path d="M196.5,76.0 C196.8,75.5 196.4,75.0 195.5,75.0 C194.6,75.0 194.2,75.5 194.5,76.0 C194.8,76.5 195.3,77.0 195.5,77.0 C195.7,77.0 196.2,76.5 196.5,76.0 Z" fill="#6C5CE7" />
  <path d="M10.0,75.0 C10.0,74.5 9.5,74.0 8.9,74.0 C8.4,74.0 8.2,74.5 8.5,75.0 C8.8,75.5 9.3,76.0 9.6,76.0 C9.8,76.0 10.0,75.5 10.0,75.0 Z" fill="#6C5CE7" />
  <path d="M74.0,74.5 C74.0,73.7 73.5,73.0 73.0,73.0 C72.5,73.0 72.0,73.7 72.0,74.5 C72.0,75.3 72.5,76.0 73.0,76.0 C73.5,76.0 74.0,75.3 74.0,74.5 Z" fill="#6C5CE7" />
  <path d="M263.0,73.5 C263.0,72.7 262.6,72.0 262.0,72.0 C261.4,72.0 261.0,72.7 261.0,73.5 C261.0,74.3 261.4,75.0 262.0,75.0 C262.6,75.0 263.0,74.3 263.0,73.5 Z" fill="#6C5CE7" />
  <path d="M51.0,73.0 C51.0,72.5 50.5,72.0 50.0,72.0 C49.5,72.0 49.0,72.5 49.0,73.0 C49.0,73.5 49.5,74.0 50.0,74.0 C50.5,74.0 51.0,73.5 51.0,73.0 Z" fill="#6C5CE7" />
  <path d="M99.5,72.0 C99.8,71.5 99.6,71.0 99.1,71.0 C98.5,71.0 98.0,71.5 98.0,72.0 C98.0,72.5 98.2,73.0 98.4,73.0 C98.7,73.0 99.2,72.5 99.5,72.0 Z" fill="#6C5CE7" />
  <path d="M121.0,70.4 C122.4,66.9 122.3,66.8 120.0,68.0 C118.9,68.6 118.0,69.5 118.0,70.1 C118.0,70.7 118.6,70.8 119.2,70.4 C120.1,69.9 120.1,70.2 119.1,71.3 C118.2,72.4 118.1,73.0 118.9,73.0 C119.5,73.0 120.5,71.8 121.0,70.4 Z" fill="#6C5CE7" />
  <path d="M93.0,71.6 C93.0,71.3 92.5,70.8 92.0,70.5 C91.5,70.2 91.0,70.4 91.0,70.9 C91.0,71.5 91.5,72.0 92.0,72.0 C92.5,72.0 93.0,71.8 93.0,71.6 Z" fill="#6C5CE7" />
  <path d="M252.0,70.1 C252.0,68.5 250.8,66.0 250.0,66.0 C249.6,66.0 249.5,67.1 249.8,68.5 C250.2,70.8 252.0,72.1 252.0,70.1 Z" fill="#6C5CE7" />
  <path d="M114.3,65.0 C114.6,63.9 114.5,63.0 114.1,63.0 C112.7,63.0 111.0,65.4 111.0,67.3 C111.0,68.9 111.3,69.0 112.4,68.1 C113.2,67.5 114.0,66.0 114.3,65.0 Z" fill="#6C5CE7" />
  <path d="M174.0,64.5 C174.0,63.7 173.6,63.0 173.0,63.0 C172.4,63.0 172.0,63.7 172.0,64.5 C172.0,65.3 172.4,66.0 173.0,66.0 C173.6,66.0 174.0,65.3 174.0,64.5 Z" fill="#6C5CE7" />
  <path d="M256.1,65.0 C257.1,64.4 258.0,63.4 258.0,62.8 C258.0,62.2 257.4,62.3 256.3,63.1 C254.8,64.4 254.7,64.3 255.2,62.2 C255.9,59.7 254.5,59.2 253.6,61.6 C252.8,63.6 252.8,66.0 253.6,66.0 C253.9,66.0 255.0,65.5 256.1,65.0 Z" fill="#6C5CE7" />
  <path d="M120.0,61.9 C120.0,61.3 119.5,61.2 119.0,61.5 C118.5,61.8 118.0,62.6 118.0,63.1 C118.0,63.7 118.5,63.8 119.0,63.5 C119.5,63.2 120.0,62.4 120.0,61.9 Z" fill="#6C5CE7" />
  <path d="M128.5,63.0 C128.8,62.5 129.3,62.0 129.6,62.0 C129.8,62.0 130.0,62.5 130.0,63.0 C130.0,63.5 129.5,64.0 128.9,64.0 C128.4,64.0 128.2,63.5 128.5,63.0 Z" fill="#6C5CE7" />
  <path d="M26.0,61.0 C26.0,60.5 25.6,60.0 25.0,60.0 C24.4,60.0 24.0,60.5 24.0,61.0 C24.0,61.5 24.4,62.0 25.0,62.0 C25.6,62.0 26.0,61.5 26.0,61.0 Z" fill="#6C5CE7" />
  <path d="M289.6,57.1 C289.7,54.7 289.4,54.0 288.4,54.4 C287.6,54.7 287.0,54.5 287.0,53.9 C287.0,53.3 286.0,53.1 284.8,53.5 L282.5,54.1 L284.9,52.1 C286.9,50.3 287.0,49.9 285.5,49.4 C284.2,48.9 284.1,48.5 285.2,47.9 C286.1,47.3 286.2,47.0 285.3,47.0 C284.6,47.0 284.3,46.3 284.7,45.3 C285.2,44.1 285.0,43.9 284.0,44.5 C283.0,45.1 282.9,44.7 283.4,42.6 L284.1,40.0 L280.4,41.5 C278.4,42.3 276.6,43.0 276.4,43.0 C276.2,43.0 276.0,43.4 276.0,43.9 C276.0,44.9 279.9,46.6 281.2,46.2 C281.7,46.1 282.0,46.4 282.0,47.0 C282.0,47.5 281.6,48.0 281.2,48.0 C280.7,48.0 279.0,49.1 277.4,50.5 C275.8,51.9 275.1,53.0 275.7,53.0 C276.6,53.0 276.3,54.1 275.0,56.2 C273.9,58.0 273.0,59.8 273.0,60.2 C273.0,61.2 282.9,61.0 283.6,59.9 C284.5,58.4 286.0,58.9 285.4,60.5 C284.9,61.7 285.2,61.8 287.1,61.2 C288.8,60.5 289.5,59.4 289.6,57.1 Z" fill="#6C5CE7" />
  <path d="M122.0,59.0 C122.0,58.5 121.8,58.0 121.6,58.0 C121.3,58.0 120.8,58.5 120.5,59.0 C120.2,59.5 120.4,60.0 120.9,60.0 C121.5,60.0 122.0,59.5 122.0,59.0 Z" fill="#6C5CE7" />
  <path d="M132.5,59.0 C132.8,58.5 133.3,58.0 133.6,58.0 C133.8,58.0 134.0,58.5 134.0,59.0 C134.0,59.5 133.5,60.0 132.9,60.0 C132.4,60.0 132.2,59.5 132.5,59.0 Z" fill="#6C5CE7" />
  <path d="M104.0,58.0 C104.0,57.5 103.5,57.0 102.9,57.0 C102.4,57.0 102.2,57.5 102.5,58.0 C102.8,58.5 103.3,59.0 103.6,59.0 C103.8,59.0 104.0,58.5 104.0,58.0 Z" fill="#6C5CE7" />
  <path d="M209.0,57.5 C209.0,56.7 208.8,56.0 208.6,56.0 C208.4,56.0 208.0,56.7 207.6,57.5 C207.3,58.3 207.5,59.0 208.0,59.0 C208.6,59.0 209.0,58.3 209.0,57.5 Z" fill="#6C5CE7" />
  <path d="M20.2,54.8 C19.3,53.0 18.1,51.2 17.5,50.8 C17.0,50.4 16.9,49.8 17.3,49.4 C18.2,48.5 15.1,45.0 13.3,45.0 C12.6,45.0 12.0,44.5 12.0,44.0 C12.0,43.5 12.8,43.0 13.8,43.0 C14.8,43.0 16.4,42.4 17.5,41.7 C19.2,40.4 19.1,40.2 16.2,38.9 C14.4,38.1 13.0,37.2 13.0,36.8 C13.0,36.3 12.0,36.0 10.8,36.0 C8.9,36.0 8.8,36.2 10.0,37.0 C11.3,37.9 11.3,38.0 10.0,38.1 C9.2,38.1 9.6,38.6 11.0,39.0 C13.5,39.8 13.5,39.8 10.5,40.0 C8.8,40.1 6.9,40.2 6.2,40.1 C5.5,40.0 4.3,40.6 3.4,41.5 C2.0,42.8 2.2,43.0 5.7,43.1 C8.4,43.1 9.0,43.3 7.6,43.9 C5.9,44.6 5.9,44.8 8.5,46.8 C10.0,48.0 10.7,49.0 10.0,49.0 C9.2,49.0 7.8,48.2 6.8,47.3 C5.1,45.8 4.8,45.8 4.0,47.0 C2.3,49.6 3.5,53.1 6.8,55.2 C8.9,56.5 10.0,56.8 10.0,56.0 C10.0,55.1 10.4,55.1 11.2,55.7 C11.9,56.3 14.0,56.8 15.9,56.8 C17.7,56.8 19.5,57.1 19.8,57.4 C21.4,59.1 21.7,57.6 20.2,54.8 Z" fill="#6C5CE7" />
  <path d="M187.0,55.0 C187.0,54.5 186.6,54.0 186.0,54.0 C185.4,54.0 185.0,54.5 185.0,55.0 C185.0,55.5 185.4,56.0 186.0,56.0 C186.6,56.0 187.0,55.5 187.0,55.0 Z" fill="#6C5CE7" />
  <path d="M219.0,55.0 C219.0,54.5 218.6,54.0 218.0,54.0 C217.4,54.0 217.0,54.5 217.0,55.0 C217.0,55.5 217.4,56.0 218.0,56.0 C218.6,56.0 219.0,55.5 219.0,55.0 Z" fill="#6C5CE7" />
  <path d="M281.0,55.0 C281.0,54.5 281.5,54.0 282.1,54.0 C282.6,54.0 282.8,54.5 282.5,55.0 C282.2,55.5 281.7,56.0 281.4,56.0 C281.2,56.0 281.0,55.5 281.0,55.0 Z" fill="#6C5CE7" />
  <path d="M45.0,52.0 C44.2,51.5 43.3,51.3 43.1,51.6 C42.8,51.9 43.2,52.5 44.0,53.0 C44.8,53.5 45.7,53.7 45.9,53.4 C46.2,53.1 45.8,52.5 45.0,52.0 Z" fill="#6C5CE7" />
  <path d="M158.0,53.0 C158.0,52.5 157.8,52.0 157.6,52.0 C157.3,52.0 156.8,52.5 156.5,53.0 C156.2,53.5 156.4,54.0 156.9,54.0 C157.5,54.0 158.0,53.5 158.0,53.0 Z" fill="#6C5CE7" />
  <path d="M38.0,48.9 C38.0,48.3 37.5,48.2 37.0,48.5 C36.5,48.8 36.0,49.6 36.0,50.1 C36.0,50.7 36.5,50.8 37.0,50.5 C37.5,50.2 38.0,49.4 38.0,48.9 Z" fill="#6C5CE7" />
  <path d="M46.0,50.6 C46.0,50.3 45.5,49.8 45.0,49.5 C44.5,49.2 44.0,49.4 44.0,49.9 C44.0,50.5 44.5,51.0 45.0,51.0 C45.5,51.0 46.0,50.8 46.0,50.6 Z" fill="#6C5CE7" />
  <path d="M125.5,50.1 C125.8,49.6 125.6,48.9 125.0,48.5 C124.5,48.2 124.0,48.6 124.0,49.4 C124.0,51.2 124.6,51.5 125.5,50.1 Z" fill="#6C5CE7" />
  <path d="M106.0,48.5 C106.0,47.7 105.6,47.0 105.1,47.0 C103.8,47.0 102.9,48.6 103.7,49.4 C104.8,50.5 106.0,50.0 106.0,48.5 Z" fill="#6C5CE7" />
  <path d="M57.0,44.8 C57.0,43.2 56.7,42.9 55.9,43.7 C55.3,44.3 55.1,45.3 55.4,45.9 C56.5,47.6 57.0,47.2 57.0,44.8 Z" fill="#6C5CE7" />
  <path d="M43.3,44.0 C43.7,42.5 43.3,42.0 42.0,42.0 C39.9,42.0 38.6,44.6 40.3,45.4 C42.4,46.2 42.8,46.0 43.3,44.0 Z" fill="#6C5CE7" />
  <path d="M133.5,45.0 C133.8,44.5 133.6,44.0 133.1,44.0 C132.5,44.0 132.0,44.5 132.0,45.0 C132.0,45.5 132.2,46.0 132.4,46.0 C132.7,46.0 133.2,45.5 133.5,45.0 Z" fill="#6C5CE7" />
  <path d="M245.0,42.8 C245.0,41.5 242.7,42.3 242.2,43.8 C242.0,44.5 242.4,44.8 243.4,44.4 C244.3,44.1 245.0,43.3 245.0,42.8 Z" fill="#6C5CE7" />
  <path d="M42.0,40.5 C42.0,40.3 41.3,40.0 40.5,39.6 C39.6,39.3 39.0,39.6 39.0,40.5 C39.0,41.4 39.6,41.7 40.5,41.4 C41.3,41.0 42.0,40.7 42.0,40.5 Z" fill="#6C5CE7" />
  <path d="M60.1,36.7 C59.3,35.9 58.7,35.9 57.8,36.8 C56.1,38.5 54.5,38.3 55.9,36.6 C56.8,35.5 56.7,35.1 55.4,34.6 C52.1,33.3 50.5,37.1 53.7,38.8 C55.9,40.1 61.6,38.2 60.1,36.7 Z" fill="#6C5CE7" />
  <path d="M131.0,38.0 C131.0,37.5 130.6,37.0 130.0,37.0 C129.4,37.0 129.0,37.5 129.0,38.0 C129.0,38.5 129.4,39.0 130.0,39.0 C130.6,39.0 131.0,38.5 131.0,38.0 Z" fill="#6C5CE7" />
  <path d="M166.0,38.0 C166.0,37.5 165.6,37.0 165.0,37.0 C164.4,37.0 164.0,37.5 164.0,38.0 C164.0,38.5 164.4,39.0 165.0,39.0 C165.6,39.0 166.0,38.5 166.0,38.0 Z" fill="#6C5CE7" />
  <path d="M245.0,37.0 C246.3,36.2 246.2,36.0 244.8,36.0 C243.8,36.0 243.1,35.5 243.2,34.8 C243.4,34.2 242.7,33.4 241.6,33.2 C240.4,33.0 240.0,33.2 240.5,33.9 C240.8,34.5 240.8,35.0 240.3,34.9 C239.9,34.8 238.8,34.8 238.0,34.9 C236.8,35.0 236.9,35.4 238.4,36.5 C240.7,38.2 242.9,38.4 245.0,37.0 Z" fill="#6C5CE7" />
  <path d="M270.2,34.5 C269.6,31.1 269.0,31.3 269.0,35.1 C269.0,36.7 269.4,37.9 269.9,37.6 C270.3,37.3 270.5,35.9 270.2,34.5 Z" fill="#6C5CE7" />
  <path d="M25.7,30.8 C25.5,29.0 24.9,27.5 24.4,27.6 C22.3,27.9 19.0,29.3 19.0,29.9 C19.0,30.5 24.4,33.6 25.8,33.9 C26.0,34.0 25.9,32.5 25.7,30.8 Z" fill="#6C5CE7" />
  <path d="M245.2,31.8 C244.5,31.1 244.0,31.0 244.0,31.6 C244.0,33.0 245.2,34.2 245.9,33.5 C246.1,33.2 245.8,32.4 245.2,31.8 Z" fill="#6C5CE7" />
  <path d="M263.4,31.5 C264.3,28.2 264.1,27.5 262.8,29.3 C261.1,31.5 258.4,30.0 259.4,27.4 C259.8,26.3 260.1,25.3 260.0,25.1 C259.9,24.9 260.4,24.3 261.2,23.9 C262.2,23.2 262.2,23.0 261.0,23.0 C259.2,23.1 255.8,25.5 256.6,26.2 C256.9,26.5 256.2,28.4 255.1,30.3 L253.1,33.8 L258.0,33.7 C262.0,33.5 263.0,33.1 263.4,31.5 Z" fill="#6C5CE7" />
  <path d="M111.0,31.0 C111.0,29.7 110.3,29.0 109.0,29.0 C107.1,29.0 106.3,31.0 107.7,32.3 C109.0,33.7 111.0,32.9 111.0,31.0 Z" fill="#6C5CE7" />
  <path d="M201.8,30.0 C202.5,30.0 203.0,29.5 203.0,28.9 C203.0,28.4 203.4,28.1 203.9,28.5 C205.2,29.2 207.0,25.8 207.0,22.6 C207.0,21.2 207.4,20.0 208.0,20.0 C208.6,20.0 209.0,20.6 209.0,21.3 C209.0,22.7 211.7,25.3 214.3,26.3 C215.5,26.8 216.0,26.4 216.0,25.0 C216.0,22.2 215.7,21.5 214.2,21.5 C213.4,21.5 212.3,20.4 211.6,19.1 C210.8,17.7 210.0,17.2 209.6,17.8 C209.2,18.4 208.3,18.7 207.5,18.3 C206.5,18.0 206.0,18.5 206.0,19.9 C206.0,21.1 205.6,22.0 205.0,22.0 C204.4,22.0 204.0,21.5 204.0,20.9 C204.0,20.1 203.5,20.1 202.5,21.0 C200.8,22.4 200.6,21.7 202.0,19.0 C202.8,17.5 202.6,17.2 200.5,17.4 C198.6,17.5 197.5,18.5 196.0,21.5 C194.9,23.6 194.4,25.7 194.9,26.0 C195.4,26.3 196.1,28.0 196.5,29.8 C197.1,32.9 197.3,33.0 198.9,31.6 C199.9,30.7 201.2,30.0 201.8,30.0 Z" fill="#6C5CE7" />
  <path d="M39.1,26.3 C37.7,24.5 36.5,22.6 36.5,22.0 C36.5,21.5 36.2,21.0 35.8,21.0 C35.3,21.0 33.8,21.0 32.2,21.1 C30.0,21.2 29.8,21.3 31.5,21.8 C32.6,22.2 33.6,23.1 33.8,23.8 C34.0,24.7 33.4,24.9 32.0,24.5 C30.6,24.0 30.0,24.3 30.0,25.4 C30.0,26.3 29.4,27.0 28.8,27.0 C27.9,27.1 28.1,27.5 29.1,28.3 C30.0,29.0 33.2,29.5 36.2,29.6 L41.8,29.6 L39.1,26.3 Z" fill="#6C5CE7" />
  <path d="M131.0,27.0 C131.0,26.4 130.6,26.0 130.0,26.0 C129.4,26.0 129.0,26.4 129.0,27.0 C129.0,27.6 129.4,28.0 130.0,28.0 C130.6,28.0 131.0,27.6 131.0,27.0 Z" fill="#6C5CE7" />
  <path d="M3.7,23.8 C3.3,20.1 1.5,18.9 1.3,22.2 C1.1,24.2 2.5,27.0 3.7,27.0 C3.9,27.0 3.9,25.6 3.7,23.8 Z" fill="#6C5CE7" />
  <path d="M137.0,23.0 C137.0,22.4 136.6,22.0 136.0,22.0 C135.4,22.0 135.0,22.4 135.0,23.0 C135.0,23.6 135.4,24.0 136.0,24.0 C136.6,24.0 137.0,23.6 137.0,23.0 Z" fill="#6C5CE7" />
  <path d="M56.0,21.2 C56.0,19.9 54.8,19.0 53.8,19.6 C52.8,20.2 53.7,22.0 55.1,22.0 C55.6,22.0 56.0,21.6 56.0,21.2 Z" fill="#6C5CE7" />
  <path d="M51.0,19.4 C51.0,18.6 50.5,18.2 50.0,18.5 C49.4,18.9 49.2,19.6 49.5,20.1 C50.4,21.5 51.0,21.2 51.0,19.4 Z" fill="#6C5CE7" />
  <path d="M196.2,18.2 C198.4,16.3 198.5,15.0 196.4,15.0 C195.4,15.0 195.0,14.4 195.3,13.5 C196.2,11.4 194.8,11.0 192.0,12.6 C190.6,13.3 189.9,14.0 190.5,14.0 C191.2,14.0 191.2,14.3 190.5,14.8 C189.9,15.2 188.9,16.5 188.2,17.8 C187.0,20.0 187.1,20.1 190.7,19.9 C192.8,19.8 195.3,19.0 196.2,18.2 Z" fill="#6C5CE7" />
  <path d="M225.0,17.9 C225.0,17.3 224.6,17.2 224.0,17.5 C223.4,17.8 223.0,18.6 223.0,19.1 C223.0,19.7 223.4,19.8 224.0,19.5 C224.6,19.2 225.0,18.4 225.0,17.9 Z" fill="#6C5CE7" />
  <path d="M260.2,18.1 C259.0,17.1 258.3,16.0 258.7,15.6 C259.0,15.3 258.6,15.0 257.7,15.0 C255.2,15.0 254.6,17.1 256.9,17.7 C258.1,18.0 259.0,18.6 259.0,19.1 C259.0,19.6 259.7,20.0 260.7,20.0 C262.0,20.0 261.9,19.7 260.2,18.1 Z" fill="#6C5CE7" />
  <path d="M55.0,17.6 C55.0,17.3 54.5,16.8 54.0,16.5 C53.5,16.2 53.0,16.4 53.0,16.9 C53.0,17.5 53.5,18.0 54.0,18.0 C54.5,18.0 55.0,17.8 55.0,17.6 Z" fill="#6C5CE7" />
  <path d="M116.1,12.7 C115.3,11.9 115.0,12.0 115.0,13.1 C115.0,14.3 114.8,14.3 114.0,13.0 C113.2,11.8 113.0,11.8 113.0,12.9 C113.0,13.7 113.8,14.9 114.8,15.6 C116.2,16.7 116.6,16.6 116.8,15.3 C117.0,14.5 116.7,13.3 116.1,12.7 Z" fill="#6C5CE7" />
  <path d="M51.6,11.3 C50.9,10.6 49.0,12.0 49.0,13.2 C49.0,13.8 49.6,13.8 50.5,13.0 C51.4,12.3 51.8,11.5 51.6,11.3 Z" fill="#6C5CE7" />
  <path d="M224.5,12.0 C224.2,11.5 225.0,11.4 226.2,11.8 C228.1,12.3 228.2,12.2 226.9,10.8 C225.9,9.7 225.0,9.5 223.8,10.1 C221.6,11.3 221.4,14.2 223.5,13.4 C224.3,13.0 224.8,12.4 224.5,12.0 Z" fill="#6C5CE7" />
  <path d="M35.5,11.9 C36.6,10.2 35.4,9.8 34.0,11.5 C33.2,12.4 33.2,13.0 33.8,13.0 C34.4,13.0 35.2,12.5 35.5,11.9 Z" fill="#6C5CE7" />
  <path d="M77.4,11.5 C77.0,10.7 76.4,10.3 75.9,10.6 C74.8,11.2 75.7,13.0 77.0,13.0 C77.5,13.0 77.7,12.3 77.4,11.5 Z" fill="#6C5CE7" />
  <path d="M245.0,10.9 C245.0,10.3 244.6,10.2 244.0,10.5 C243.4,10.8 243.0,11.6 243.0,12.1 C243.0,12.7 243.4,12.8 244.0,12.5 C244.6,12.2 245.0,11.4 245.0,10.9 Z" fill="#6C5CE7" />
  <path d="M120.6,10.5 C118.3,8.8 116.4,8.6 115.6,9.9 C114.9,11.0 116.7,11.8 120.0,11.9 C122.4,11.9 122.4,11.9 120.6,10.5 Z" fill="#6C5CE7" />
  <path d="M3.7,10.4 C3.4,10.1 2.5,10.0 1.8,10.3 C1.0,10.6 1.3,10.9 2.4,10.9 C3.5,11.0 4.1,10.7 3.7,10.4 Z" fill="#6C5CE7" />
  <path d="M196.6,8.5 C195.0,6.9 193.0,6.5 193.0,7.8 C193.0,9.2 194.2,10.0 196.2,10.0 C197.9,10.0 198.0,9.8 196.6,8.5 Z" fill="#6C5CE7" />
  <path d="M81.0,8.0 C81.0,7.5 80.3,7.3 79.5,7.6 C78.7,8.0 78.0,8.4 78.0,8.6 C78.0,8.8 78.7,9.0 79.5,9.0 C80.3,9.0 81.0,8.6 81.0,8.0 Z" fill="#6C5CE7" />
  <path d="M284.0,6.6 C284.0,6.3 283.6,5.8 283.0,5.5 C282.4,5.2 282.0,5.4 282.0,5.9 C282.0,6.5 282.4,7.0 283.0,7.0 C283.6,7.0 284.0,6.8 284.0,6.6 Z" fill="#6C5CE7" />
  <path d="M208.0,3.6 C208.0,3.4 207.3,3.0 206.5,2.6 C205.7,2.3 205.0,2.5 205.0,3.0 C205.0,3.6 205.7,4.0 206.5,4.0 C207.3,4.0 208.0,3.8 208.0,3.6 Z" fill="#6C5CE7" />
  <path d="M221.0,2.0 C221.0,1.4 220.6,1.0 220.1,1.0 C219.5,1.0 218.8,1.4 218.5,2.0 C218.2,2.5 218.6,3.0 219.4,3.0 C220.3,3.0 221.0,2.5 221.0,2.0 Z" fill="#6C5CE7" />
</svg>